<svg viewBox="0 0 40 41" fill="currentColor" xmlns="http://www.w3.org/2000/svg">
<g id="Icons">
<path id="Vector" d="M20.35 20.475C19.6538 20.475 18.9861 20.1984 18.4938 19.7062C18.0016 19.2139 17.725 18.5462 17.725 17.85C17.725 17.1538 18.0016 16.4861 18.4938 15.9938C18.9861 15.5016 19.6538 15.225 20.35 15.225C21.0462 15.225 21.7139 15.5016 22.2062 15.9938C22.6984 16.4861 22.975 17.1538 22.975 17.85C22.975 18.1947 22.9071 18.5361 22.7752 18.8545C22.6433 19.173 22.4499 19.4624 22.2062 19.7062C21.9624 19.9499 21.673 20.1433 21.3545 20.2752C21.0361 20.4071 20.6947 20.475 20.35 20.475ZM20.35 10.5C18.4007 10.5 16.5312 11.2744 15.1528 12.6528C13.7744 14.0312 13 15.9007 13 17.85C13 23.3625 20.35 31.5 20.35 31.5C20.35 31.5 27.7 23.3625 27.7 17.85C27.7 15.9007 26.9256 14.0312 25.5472 12.6528C24.1688 11.2744 22.2993 10.5 20.35 10.5Z" fill="#FFA33C"/>
</g>
</svg>
