<svg viewBox="0 0 40 40" fill="currentColor" xmlns="http://www.w3.org/2000/svg">
<g id="Icons">
<path id="Vector" d="M30.9881 26.5681C30.938 26.2585 30.7439 25.9939 30.4532 25.8367L26.1527 23.3029L26.1173 23.2831C25.9369 23.1928 25.7378 23.1466 25.5362 23.1481C25.1759 23.1481 24.8318 23.2846 24.593 23.524L23.3237 24.7939C23.2694 24.8455 23.0924 24.9202 23.0387 24.9229C23.024 24.9217 21.5618 24.8164 18.8699 22.1242C16.1828 19.4377 16.0688 17.971 16.0679 17.971C16.0694 17.896 16.1432 17.7196 16.1957 17.665L17.278 16.5829C17.6593 16.2007 17.7737 15.5671 17.5475 15.0763L15.157 10.5784C14.9833 10.2208 14.6459 10 14.2715 10C14.0066 10 13.751 10.1098 13.5512 10.3093L10.6007 13.2532C10.3178 13.5346 10.0741 14.0266 10.021 14.4226C9.99525 14.6119 9.47175 19.1305 15.6667 25.3264C20.9261 30.5851 25.0271 30.9937 26.1595 30.9937C26.2975 30.9955 26.4354 30.9884 26.5723 30.9724C26.9671 30.9196 27.4586 30.6766 27.7397 30.3949L30.6878 27.4471C30.9284 27.2053 31.0382 26.8858 30.9881 26.5681Z" fill="#FFA33C"/>
</g>
</svg>
