<svg width="50" height="61" viewBox="0 0 50 61" fill="none" xmlns="http://www.w3.org/2000/svg">
<mask id="path-1-inside-1_1649_185" fill="white">
<path fillRule="evenodd" clipRule="evenodd" d="M30.8843 12.5018L47.9451 25.8974C48.2637 26.0916 48.5663 26.3342 48.8531 26.6255C48.8531 26.6578 48.869 26.674 48.9008 26.674C49.6177 27.4505 50 28.5183 50 29.5861C50 31.7701 48.4707 33.5659 46.4636 33.7601C46.0813 33.8571 45.699 33.8571 45.2211 33.8086C45.0299 33.7763 44.8706 33.7277 44.7432 33.663C44.6795 33.663 44.6317 33.663 44.5998 33.663C44.9821 34.8278 45.1733 36.025 45.1733 37.2546C45.1733 43.7097 40.2988 49 34.3251 49C28.447 49 23.6203 43.8553 23.477 37.5458H19.5105C18.6025 37.5943 17.4555 37.5943 16.0218 37.5943C12.7244 37.5943 10.3827 36.1868 8.56671 34.7793C8.08882 34.4557 7.64278 34.116 7.22861 33.7601C5.22146 32.1584 3.50105 30.7509 0.920427 30.7509C0.633692 30.7509 0.346956 30.6053 0.203588 30.3626C0.0602206 30.1685 -0.0353579 29.8773 0.0124314 29.6346V20.9954C0.0124314 20.9307 0.0124314 20.8822 0.0124314 20.8498V20.1703C0.0124314 19.6364 0.442535 19.1996 0.968217 19.1996C1.78063 19.1996 3.2621 18.957 5.07809 18.4231L5.41262 18.326C5.44448 18.2936 5.47634 18.2775 5.5082 18.2775C10.4305 16.967 20.4184 14.2005 27.9214 12.1621L28.0169 12.1136C28.0169 12.1136 28.0329 12.1136 28.0647 12.1136C28.8294 11.9194 29.594 11.9679 30.4542 12.3077C30.4542 12.3077 30.4701 12.3077 30.502 12.3077L30.5976 12.3562C30.6931 12.3886 30.7887 12.4371 30.8843 12.5018ZM43.9308 37.2546C43.9308 35.6529 43.5962 34.0998 42.9272 32.6438L42.1626 32.0614L34.7552 26.8681C34.5959 26.8358 34.4526 26.8196 34.3251 26.8196C31.2188 26.8196 28.3037 28.4698 26.5355 31.1877H27.1089C27.5868 31.1877 28.0488 31.301 28.4948 31.5275C29.355 31.9643 29.9763 32.7894 30.1675 33.7601C30.4542 33.032 31.0277 32.2555 32.1268 31.7216C32.4136 31.5922 32.7162 31.4789 33.0348 31.3819V30.8965C33.0348 30.2656 33.5605 29.7317 34.134 29.7317H35.042C35.6632 29.7317 36.1411 30.2656 36.1411 30.8965V31.4304C37.065 31.6893 37.8297 32.1908 38.435 32.935C38.6262 33.1615 38.7217 33.4041 38.7217 33.663C38.7217 34.0513 38.5306 34.3425 38.2438 34.5366L37.2403 35.2647C37.2084 35.2647 37.1925 35.2647 37.1925 35.2647C37.0969 35.3132 36.8102 35.4588 36.5712 35.4588C36.4119 35.4588 36.2686 35.4264 36.1411 35.3617V35.5559C37.2562 35.8147 38.1005 36.3162 38.6739 37.0604C39.12 37.6429 39.343 38.3385 39.343 39.1474C39.3111 40.4093 38.7855 41.3962 37.7659 42.1081C37.2881 42.4316 36.7464 42.6743 36.1411 42.8361V43.2244C36.1411 43.8553 35.6632 44.3892 35.042 44.3892H34.134C33.5605 44.3892 33.0348 43.8553 33.0348 43.2244V42.8361C32.302 42.6419 31.6489 42.3022 31.0755 41.8168C30.6294 41.4609 30.279 41.0726 30.0241 40.652C29.8648 40.4579 29.7851 40.2476 29.7851 40.0211C29.7851 39.6328 29.9763 39.293 30.3108 39.0989L31.2188 38.5165C31.2507 38.4841 31.2666 38.4679 31.2666 38.4679C31.41 38.3709 31.6011 38.3223 31.7923 38.3223C32.1746 38.3223 32.4613 38.4679 32.7003 38.7592C32.7959 38.8886 32.9074 39.0018 33.0348 39.0989V38.4679C31.9516 38.1767 31.1392 37.6429 30.5976 36.8663C30.3745 36.5427 30.1993 36.1706 30.0719 35.75C29.6418 37.0604 28.4948 37.9826 27.1089 37.9826H24.7195C25.054 43.4185 29.2595 47.7381 34.3251 47.7381C39.6297 47.7381 43.9308 43.0302 43.9308 37.2546ZM35.5199 31.9157V30.8965C35.5199 30.6053 35.3287 30.3626 35.042 30.3626H34.134C33.895 30.3626 33.6561 30.6053 33.6561 30.8965V31.9157C33.1782 31.9805 32.764 32.1099 32.4136 32.304C31.2029 32.8864 30.5976 33.7762 30.5976 34.9734C30.6294 35.5559 30.7887 36.0736 31.0755 36.5266C31.6171 37.2708 32.4773 37.7399 33.6561 37.9341V40.2152C33.1463 40.0534 32.6684 39.6975 32.2224 39.1474C32.1268 39.018 31.9834 38.9533 31.7923 38.9533C31.7445 38.9533 31.5533 39.0018 31.5533 39.0018L30.6453 39.5842C30.486 39.7137 30.4064 39.8593 30.4064 40.0211C30.4064 40.1181 30.4383 40.199 30.502 40.2637C30.725 40.652 31.0436 41.0079 31.4578 41.3315C32.095 41.8492 32.8277 42.1889 33.6561 42.3507V43.2244C33.6561 43.5156 33.895 43.7582 34.134 43.7582H35.042C35.3287 43.7582 35.5199 43.5156 35.5199 43.2244V42.3507C36.2526 42.2213 36.8898 41.9625 37.4314 41.5742C38.2598 40.9918 38.6899 40.1667 38.7217 39.0989C38.7217 38.4518 38.5465 37.9017 38.1961 37.4487C37.6226 36.7045 36.7305 36.2353 35.5199 36.0412V34.1969C35.7429 34.3263 35.95 34.4881 36.1411 34.6822C36.2686 34.7793 36.4119 34.8278 36.5712 34.8278C36.7146 34.8278 36.858 34.7308 36.858 34.7308H36.9057L37.9093 34.0513C38.0368 33.9542 38.1005 33.8248 38.1005 33.663C38.1005 33.5659 38.0527 33.4689 37.9571 33.3718C37.3518 32.5952 36.5394 32.1099 35.5199 31.9157ZM46.1291 26.8681L29.8329 14.1035L29.7851 14.0549C29.3073 13.8608 28.9249 13.8608 28.447 13.9579H28.3993C20.8963 15.9963 10.9562 18.7628 6.03388 20.0733L5.69935 20.2189C5.66749 20.2189 5.63563 20.2189 5.60378 20.2189C4.07452 20.6395 2.832 20.9145 1.87621 21.044C1.87621 21.0763 1.87621 21.1087 1.87621 21.141V22.1603V28.9066C4.55241 29.2463 6.51177 30.7994 8.37555 32.304C8.78973 32.6276 9.21983 32.9512 9.66586 33.2747C11.3385 34.5366 13.2501 35.7015 16.0218 35.7015C17.4555 35.7015 18.5547 35.7015 19.4627 35.7015H26.5833C27.1089 35.7015 27.539 35.2161 27.539 34.5852C27.539 34.0027 27.1089 33.5174 26.5833 33.5174H19.9406C19.8768 33.5174 19.829 33.5012 19.7972 33.4689C17.9812 33.1777 16.6431 31.5275 16.6431 29.5375C16.6431 28.13 17.4077 26.7711 18.5547 26.0916C18.6184 26.0592 18.698 26.0269 18.7936 25.9945C18.937 25.946 19.6538 25.7518 20.7052 25.4606L21.3742 25.2665C22.1707 25.04 22.9831 24.7973 23.8115 24.5385L24.0026 24.4899C26.7266 23.7134 30.0719 22.7427 30.6931 22.5971C30.725 22.5971 30.7728 22.5971 30.8365 22.5971C31.3463 22.5647 31.7923 22.5971 32.1746 22.6941C32.2702 22.7265 32.3658 22.775 32.4613 22.8397L42.9272 30.1685L44.791 31.6245C44.791 31.6245 44.8069 31.6407 44.8388 31.6731C44.8706 31.7054 44.9184 31.7378 44.9821 31.7701C45.1096 31.8349 45.2051 31.8834 45.2689 31.9157C45.3644 31.9157 45.4441 31.9319 45.5078 31.9643C45.7945 32.0128 45.9379 31.9643 46.1291 31.9157C46.1609 31.9157 46.1928 31.9157 46.2246 31.9157C47.3238 31.8187 48.184 30.7994 48.184 29.5861C48.184 29.0037 47.9451 28.3727 47.515 27.9359C47.3557 27.7741 47.1804 27.6447 46.9893 27.5476C46.9574 27.5153 46.9096 27.4829 46.8459 27.4505L46.1291 26.8681ZM33.226 25.6062L31.5533 24.4414C31.394 24.4414 31.2188 24.4414 31.0277 24.4414C30.4064 24.587 28.1125 25.2665 24.5283 26.2857L24.3372 26.3342C23.5247 26.5769 22.6645 26.8196 21.8521 27.0623L21.1831 27.2564C20.3707 27.4991 19.7016 27.6447 19.4149 27.7418C18.8414 28.13 18.5069 28.8095 18.5069 29.5375C18.5069 30.5568 19.1281 31.4304 20.0361 31.6245H24.8628C24.8628 31.5922 24.8788 31.5598 24.9106 31.5275C26.6311 28.1786 29.7851 25.9945 33.226 25.6062Z"/>
</mask>
<path fillRule="evenodd" clipRule="evenodd" d="M30.8843 12.5018L47.9451 25.8974C48.2637 26.0916 48.5663 26.3342 48.8531 26.6255C48.8531 26.6578 48.869 26.674 48.9008 26.674C49.6177 27.4505 50 28.5183 50 29.5861C50 31.7701 48.4707 33.5659 46.4636 33.7601C46.0813 33.8571 45.699 33.8571 45.2211 33.8086C45.0299 33.7763 44.8706 33.7277 44.7432 33.663C44.6795 33.663 44.6317 33.663 44.5998 33.663C44.9821 34.8278 45.1733 36.025 45.1733 37.2546C45.1733 43.7097 40.2988 49 34.3251 49C28.447 49 23.6203 43.8553 23.477 37.5458H19.5105C18.6025 37.5943 17.4555 37.5943 16.0218 37.5943C12.7244 37.5943 10.3827 36.1868 8.56671 34.7793C8.08882 34.4557 7.64278 34.116 7.22861 33.7601C5.22146 32.1584 3.50105 30.7509 0.920427 30.7509C0.633692 30.7509 0.346956 30.6053 0.203588 30.3626C0.0602206 30.1685 -0.0353579 29.8773 0.0124314 29.6346V20.9954C0.0124314 20.9307 0.0124314 20.8822 0.0124314 20.8498V20.1703C0.0124314 19.6364 0.442535 19.1996 0.968217 19.1996C1.78063 19.1996 3.2621 18.957 5.07809 18.4231L5.41262 18.326C5.44448 18.2936 5.47634 18.2775 5.5082 18.2775C10.4305 16.967 20.4184 14.2005 27.9214 12.1621L28.0169 12.1136C28.0169 12.1136 28.0329 12.1136 28.0647 12.1136C28.8294 11.9194 29.594 11.9679 30.4542 12.3077C30.4542 12.3077 30.4701 12.3077 30.502 12.3077L30.5976 12.3562C30.6931 12.3886 30.7887 12.4371 30.8843 12.5018ZM43.9308 37.2546C43.9308 35.6529 43.5962 34.0998 42.9272 32.6438L42.1626 32.0614L34.7552 26.8681C34.5959 26.8358 34.4526 26.8196 34.3251 26.8196C31.2188 26.8196 28.3037 28.4698 26.5355 31.1877H27.1089C27.5868 31.1877 28.0488 31.301 28.4948 31.5275C29.355 31.9643 29.9763 32.7894 30.1675 33.7601C30.4542 33.032 31.0277 32.2555 32.1268 31.7216C32.4136 31.5922 32.7162 31.4789 33.0348 31.3819V30.8965C33.0348 30.2656 33.5605 29.7317 34.134 29.7317H35.042C35.6632 29.7317 36.1411 30.2656 36.1411 30.8965V31.4304C37.065 31.6893 37.8297 32.1908 38.435 32.935C38.6262 33.1615 38.7217 33.4041 38.7217 33.663C38.7217 34.0513 38.5306 34.3425 38.2438 34.5366L37.2403 35.2647C37.2084 35.2647 37.1925 35.2647 37.1925 35.2647C37.0969 35.3132 36.8102 35.4588 36.5712 35.4588C36.4119 35.4588 36.2686 35.4264 36.1411 35.3617V35.5559C37.2562 35.8147 38.1005 36.3162 38.6739 37.0604C39.12 37.6429 39.343 38.3385 39.343 39.1474C39.3111 40.4093 38.7855 41.3962 37.7659 42.1081C37.2881 42.4316 36.7464 42.6743 36.1411 42.8361V43.2244C36.1411 43.8553 35.6632 44.3892 35.042 44.3892H34.134C33.5605 44.3892 33.0348 43.8553 33.0348 43.2244V42.8361C32.302 42.6419 31.6489 42.3022 31.0755 41.8168C30.6294 41.4609 30.279 41.0726 30.0241 40.652C29.8648 40.4579 29.7851 40.2476 29.7851 40.0211C29.7851 39.6328 29.9763 39.293 30.3108 39.0989L31.2188 38.5165C31.2507 38.4841 31.2666 38.4679 31.2666 38.4679C31.41 38.3709 31.6011 38.3223 31.7923 38.3223C32.1746 38.3223 32.4613 38.4679 32.7003 38.7592C32.7959 38.8886 32.9074 39.0018 33.0348 39.0989V38.4679C31.9516 38.1767 31.1392 37.6429 30.5976 36.8663C30.3745 36.5427 30.1993 36.1706 30.0719 35.75C29.6418 37.0604 28.4948 37.9826 27.1089 37.9826H24.7195C25.054 43.4185 29.2595 47.7381 34.3251 47.7381C39.6297 47.7381 43.9308 43.0302 43.9308 37.2546ZM35.5199 31.9157V30.8965C35.5199 30.6053 35.3287 30.3626 35.042 30.3626H34.134C33.895 30.3626 33.6561 30.6053 33.6561 30.8965V31.9157C33.1782 31.9805 32.764 32.1099 32.4136 32.304C31.2029 32.8864 30.5976 33.7762 30.5976 34.9734C30.6294 35.5559 30.7887 36.0736 31.0755 36.5266C31.6171 37.2708 32.4773 37.7399 33.6561 37.9341V40.2152C33.1463 40.0534 32.6684 39.6975 32.2224 39.1474C32.1268 39.018 31.9834 38.9533 31.7923 38.9533C31.7445 38.9533 31.5533 39.0018 31.5533 39.0018L30.6453 39.5842C30.486 39.7137 30.4064 39.8593 30.4064 40.0211C30.4064 40.1181 30.4383 40.199 30.502 40.2637C30.725 40.652 31.0436 41.0079 31.4578 41.3315C32.095 41.8492 32.8277 42.1889 33.6561 42.3507V43.2244C33.6561 43.5156 33.895 43.7582 34.134 43.7582H35.042C35.3287 43.7582 35.5199 43.5156 35.5199 43.2244V42.3507C36.2526 42.2213 36.8898 41.9625 37.4314 41.5742C38.2598 40.9918 38.6899 40.1667 38.7217 39.0989C38.7217 38.4518 38.5465 37.9017 38.1961 37.4487C37.6226 36.7045 36.7305 36.2353 35.5199 36.0412V34.1969C35.7429 34.3263 35.95 34.4881 36.1411 34.6822C36.2686 34.7793 36.4119 34.8278 36.5712 34.8278C36.7146 34.8278 36.858 34.7308 36.858 34.7308H36.9057L37.9093 34.0513C38.0368 33.9542 38.1005 33.8248 38.1005 33.663C38.1005 33.5659 38.0527 33.4689 37.9571 33.3718C37.3518 32.5952 36.5394 32.1099 35.5199 31.9157ZM46.1291 26.8681L29.8329 14.1035L29.7851 14.0549C29.3073 13.8608 28.9249 13.8608 28.447 13.9579H28.3993C20.8963 15.9963 10.9562 18.7628 6.03388 20.0733L5.69935 20.2189C5.66749 20.2189 5.63563 20.2189 5.60378 20.2189C4.07452 20.6395 2.832 20.9145 1.87621 21.044C1.87621 21.0763 1.87621 21.1087 1.87621 21.141V22.1603V28.9066C4.55241 29.2463 6.51177 30.7994 8.37555 32.304C8.78973 32.6276 9.21983 32.9512 9.66586 33.2747C11.3385 34.5366 13.2501 35.7015 16.0218 35.7015C17.4555 35.7015 18.5547 35.7015 19.4627 35.7015H26.5833C27.1089 35.7015 27.539 35.2161 27.539 34.5852C27.539 34.0027 27.1089 33.5174 26.5833 33.5174H19.9406C19.8768 33.5174 19.829 33.5012 19.7972 33.4689C17.9812 33.1777 16.6431 31.5275 16.6431 29.5375C16.6431 28.13 17.4077 26.7711 18.5547 26.0916C18.6184 26.0592 18.698 26.0269 18.7936 25.9945C18.937 25.946 19.6538 25.7518 20.7052 25.4606L21.3742 25.2665C22.1707 25.04 22.9831 24.7973 23.8115 24.5385L24.0026 24.4899C26.7266 23.7134 30.0719 22.7427 30.6931 22.5971C30.725 22.5971 30.7728 22.5971 30.8365 22.5971C31.3463 22.5647 31.7923 22.5971 32.1746 22.6941C32.2702 22.7265 32.3658 22.775 32.4613 22.8397L42.9272 30.1685L44.791 31.6245C44.791 31.6245 44.8069 31.6407 44.8388 31.6731C44.8706 31.7054 44.9184 31.7378 44.9821 31.7701C45.1096 31.8349 45.2051 31.8834 45.2689 31.9157C45.3644 31.9157 45.4441 31.9319 45.5078 31.9643C45.7945 32.0128 45.9379 31.9643 46.1291 31.9157C46.1609 31.9157 46.1928 31.9157 46.2246 31.9157C47.3238 31.8187 48.184 30.7994 48.184 29.5861C48.184 29.0037 47.9451 28.3727 47.515 27.9359C47.3557 27.7741 47.1804 27.6447 46.9893 27.5476C46.9574 27.5153 46.9096 27.4829 46.8459 27.4505L46.1291 26.8681ZM33.226 25.6062L31.5533 24.4414C31.394 24.4414 31.2188 24.4414 31.0277 24.4414C30.4064 24.587 28.1125 25.2665 24.5283 26.2857L24.3372 26.3342C23.5247 26.5769 22.6645 26.8196 21.8521 27.0623L21.1831 27.2564C20.3707 27.4991 19.7016 27.6447 19.4149 27.7418C18.8414 28.13 18.5069 28.8095 18.5069 29.5375C18.5069 30.5568 19.1281 31.4304 20.0361 31.6245H24.8628C24.8628 31.5922 24.8788 31.5598 24.9106 31.5275C26.6311 28.1786 29.7851 25.9945 33.226 25.6062Z" fill="white" stroke="white" stroke-width="0.6" mask="url(#path-1-inside-1_1649_185)"/>
</svg>
