<svg width="52" height="61" viewBox="0 0 52 61" fill="none" xmlns="http://www.w3.org/2000/svg">
<path fillRule="evenodd" clipRule="evenodd" d="M38.6249 10L51 22.2829L46.283 26.9858C46.246 29.0882 45.5061 31.2091 44.0633 33.3485C43.4528 34.2891 42.7869 35.0637 42.01 35.8383C41.529 36.3547 41.0296 36.8711 40.5117 37.3875C41.677 38.826 41.7325 40.2645 40.6781 41.6477C40.2342 42.1457 39.5128 42.7543 38.5694 42.699L38.9023 43.1416C40.2342 44.8014 39.7902 46.1846 38.6249 47.3465C37.4595 48.5638 36.4051 48.6744 34.9068 48.2318C34.8698 48.2318 34.8513 48.2318 34.8513 48.2318C32.6315 51.4962 30.8002 51.4962 28.0255 49.1724C27.6371 49.7257 27.5261 50.0576 26.8047 50.4449C25.1953 51.3855 23.0866 51.1089 21.7547 49.781C21.2738 49.3384 20.8113 48.8957 20.3674 48.4531C19.2575 48.3978 18.2586 47.5679 17.1487 45.908C17.1487 45.908 17.1302 45.908 17.0932 45.908C15.5394 46.3506 14.485 46.24 13.3751 45.0228C12.2653 43.9162 11.8213 42.6436 12.8757 41.0945C11.9138 40.1354 10.9334 39.158 9.93452 38.1621C9.21309 37.4428 8.49168 36.6129 7.93674 35.7276C6.4569 33.5514 5.69848 31.412 5.66149 29.3095L1 24.662L13.3751 12.3238L17.2597 16.2521C18.1476 15.6435 21.2553 14.039 25.1953 16.6947L26.2497 15.6435L26.3052 15.5881C29.5239 13.0984 32.1876 13.541 33.7414 14.1496C33.9634 14.1865 34.1853 14.2234 34.4073 14.2603L38.6249 10ZM11.9323 34.5104C15.04 31.3567 18.2031 28.203 21.3663 25.0493C21.3663 25.0493 21.3848 25.0308 21.4218 24.9939C21.4587 24.8464 21.5327 24.6989 21.6437 24.5513C22.1987 24.0349 22.7536 23.5001 23.3085 22.9468L22.7536 22.3935L21.4772 20.955L22.5871 20.1251L27.3041 24.828C27.7481 25.3259 28.525 25.3259 29.0244 24.828L29.3019 24.5513C29.5239 24.2747 29.6903 23.998 29.6903 23.6661C29.6903 23.3341 29.5239 23.0021 29.3019 22.7808L24.7514 18.2439C21.3108 15.5881 18.7026 17.0267 18.0921 17.4693L17.9811 17.6906L16.4273 17.58V17.5246L16.2053 17.3033L12.9312 14.039L2.72031 24.2193L7.49278 28.9776C7.45579 29.3464 7.45579 29.7153 7.49278 30.0841C7.52978 30.5268 7.60377 30.9509 7.71476 31.3567C8.21421 33.2378 9.26859 34.8977 10.6559 36.3916C10.8779 35.7645 11.3034 35.1375 11.9323 34.5104ZM26.1387 48.5084C25.7688 48.4347 25.4358 48.3056 25.1398 48.1211C24.4184 47.7338 24.3074 47.3465 23.919 46.7933C23.327 47.2728 22.7721 47.6601 22.2542 47.9552C22.4761 48.1765 22.6981 48.3978 22.9201 48.6191C23.3085 48.9511 23.808 49.5043 24.5294 49.615C25.0843 49.615 25.4728 49.449 25.8058 49.0617C25.9723 48.9511 26.0277 48.7297 26.1387 48.5084ZM32.1321 45.908C32.0581 45.8711 32.0026 45.8158 31.9656 45.742C31.3737 46.2953 30.7817 46.867 30.1898 47.4572C30.0048 47.6416 29.8013 47.8076 29.5794 47.9552C29.7273 48.1027 29.8753 48.2502 30.0233 48.3978C31.0777 49.3384 31.8546 49.283 32.576 48.4531C33.242 47.6785 33.0755 46.9039 32.1321 45.908ZM38.9578 11.7152L35.6837 14.9795L34.6848 16.0308C34.6848 16.0308 32.9645 15.0349 31.0222 15.2009C29.9678 15.2562 28.6915 15.6435 27.2486 16.6947L26.3052 17.6353L26.9711 18.3546L30.4673 21.8402C30.9112 22.3382 31.1887 23.0021 31.1887 23.6661C31.1887 24.3853 30.9112 25.1046 30.4118 25.6026L30.0788 25.8792C29.5239 26.4325 28.8579 26.7091 28.1365 26.7091C27.4706 26.7091 26.7492 26.4325 26.1942 25.8792L24.6404 24.33C20.8113 28.1477 16.9822 31.9653 13.1532 35.7829C12.5982 36.3362 12.0988 36.9448 12.4872 37.8854C12.8202 38.7707 13.9301 39.158 14.7625 38.7153C15.1509 38.494 15.4839 38.2174 15.7614 37.8854C18.0921 35.5985 20.4044 33.2932 22.6981 30.9694C23.1421 30.5268 23.6415 30.0841 24.1964 30.5821C24.8069 31.1907 24.4184 31.6887 23.919 32.1866C20.9223 35.1743 17.9256 38.1621 14.929 41.1498C14.0966 42.035 13.9301 42.865 14.4295 43.5842C15.1509 44.5248 16.2608 44.5801 17.2042 43.5842C20.1639 40.6334 23.1236 37.701 26.0832 34.787C26.5272 34.3444 26.8047 34.0678 27.5261 34.1784C27.9145 34.2338 28.081 34.5657 28.0255 34.953C27.97 35.5063 27.6371 35.7276 27.3041 36.1149C24.7884 38.5862 22.2727 41.076 19.7569 43.5842C18.8135 44.5801 18.7026 45.3547 19.3685 46.1293C20.0344 46.9592 20.8668 47.0146 21.8657 46.074C24.141 43.9715 26.3052 41.7584 28.525 39.6559C29.0059 39.1764 29.4684 38.6969 29.9123 38.2174C30.4118 37.7748 31.4661 36.4469 32.1876 37.1662C32.9645 37.8854 31.5771 38.9367 31.0777 39.4899C30.5967 39.9694 30.1343 40.4305 29.6903 40.8731C28.6915 41.869 27.7481 42.8096 26.8047 43.7502C26.3607 44.1928 25.9168 44.6355 25.7503 45.1887C25.6393 45.6867 25.7503 46.4613 26.0832 46.7379C26.4162 47.0699 26.8047 47.2912 27.3596 47.2359C28.081 47.1806 28.636 46.6273 28.9689 46.2953C31.0777 44.1928 33.1865 42.0904 35.2397 40.0432C37.2375 38.0514 39.2908 36.1149 41.2331 34.0678C42.6204 32.5739 43.7303 30.9141 44.1742 29.0329C44.2852 28.6272 44.3592 28.203 44.3962 27.7604C44.4332 27.3915 44.4517 27.0226 44.4517 26.6538L49.1687 21.8956L38.9578 11.7152ZM39.1798 38.6047C38.4399 39.3793 37.6815 40.1354 36.9045 40.8731C36.9785 40.9469 37.0525 41.0022 37.1265 41.0391C38.0144 41.5371 39.0688 41.0945 39.4018 40.2092C39.6792 39.5453 39.5128 39.0473 39.1798 38.6047ZM36.96 43.4736C36.5161 43.0309 36.0721 42.5883 35.6282 42.1457C34.8143 42.9203 34.0189 43.6949 33.242 44.4695C33.7229 44.949 34.2038 45.4285 34.6848 45.908C35.6282 46.9039 36.7381 46.8486 37.4595 45.908C37.9589 45.1887 37.8479 44.3588 36.96 43.4736Z" fill="white" stroke="white" stroke-width="0.5"/>
</svg>
