<svg width="50" height="61" viewBox="0 0 50 61" fill="none" xmlns="http://www.w3.org/2000/svg">
<path d="M32.2808 36.4501C31.8525 37.2571 31.4896 38.1169 31.388 39.0295C31.3783 39.12 31.371 39.2105 31.3662 39.3011C31.3154 40.5003 32.0195 41.6015 33.1083 42.0088C33.1083 42.0088 33.1155 42.0088 33.1228 42.0088C34.6761 42.582 36.4109 42.3406 37.9642 41.79C40.7297 40.8095 43.1613 38.8334 44.7364 36.2841C45.4623 35.1151 46.0212 33.7952 45.9994 32.4074C45.9849 31.0196 45.3026 29.5865 44.0831 29.0209C42.9871 28.5004 41.7023 28.7644 40.5628 29.1792C37.0714 30.4464 34.0664 33.0862 32.2808 36.4501Z" stroke="white" stroke-width="1.5"/>
<path d="M39.2353 15.1886C37.9632 14.9317 36.6767 15.5116 35.5771 16.2162C32.1991 18.374 29.6476 21.8383 28.548 25.7504C28.2892 26.6825 28.1096 27.666 28.2102 28.6275C28.2174 28.7229 28.2318 28.8183 28.2533 28.9138C28.4689 30.1688 29.4608 31.1377 30.7041 31.2845C30.7041 31.2845 30.7113 31.2845 30.7185 31.2845C32.4794 31.4973 34.2474 30.8221 35.7567 29.8753C38.4376 28.1798 40.529 25.5522 41.5999 22.5283C42.0886 21.1558 42.369 19.6438 42.0383 18.2199C41.7005 16.796 40.644 15.4822 39.2353 15.1886Z" stroke="white" stroke-width="1.5"/>
<path d="M24.2648 8.2513C22.8933 8.73679 21.7975 9.79602 20.9195 10.9656C18.9892 13.5181 17.9443 16.7473 18.0023 19.9691C18.0386 21.7934 18.445 23.6765 19.577 25.0814C19.5843 25.0814 19.5843 25.0888 19.5915 25.0888C20.3897 26.0744 21.7395 26.4055 22.8933 25.92C22.9852 25.8807 23.0723 25.8391 23.1545 25.7949C24.0181 25.3609 24.7292 24.6768 25.3678 23.9413C28.0165 20.8739 29.5041 16.7988 29.4533 12.7236C29.4388 11.3996 29.2211 9.97256 28.314 9.01631C27.2981 7.96442 25.629 7.76582 24.2648 8.2513Z" stroke="white" stroke-width="1.5"/>
<path d="M21.5085 53.6844C23.6747 54.5541 26.2522 53.5358 27.7576 51.737C29.2629 49.9383 29.8577 47.5226 30.0413 45.1738C30.3644 40.9594 29.0867 35.3476 26.8617 31.7799C25.6721 29.8696 23.5793 28.7175 21.3469 28.7324C17.1833 28.7696 11.8227 30.717 8.5036 33.2739C6.64576 34.701 4.96416 36.5146 4.28124 38.7593C3.59832 41.0189 4.14906 43.769 6.04362 45.1367C8.54032 46.9503 12.021 45.709 14.9142 47.3071C17.8001 48.9051 18.6519 52.5398 21.5085 53.6844Z" stroke="white" stroke-width="1.5"/>
<path d="M9.34807 28.8074C9.3553 28.8148 9.3553 28.8223 9.36253 28.8223C10.2726 29.5465 11.5439 29.5689 12.4757 28.8746C12.5479 28.8248 12.6178 28.7701 12.6852 28.7103C13.3642 28.1355 13.8626 27.359 14.2815 26.5602C16.0295 23.2156 16.5424 19.1991 15.6828 15.5035C15.4011 14.2941 14.9171 13.0473 13.9131 12.368C12.8008 11.6214 11.2767 11.8006 10.1499 12.5247C9.03026 13.2489 8.2646 14.4434 7.70842 15.6902C6.50937 18.4226 6.22044 21.5806 6.92109 24.4997C7.31114 26.1496 8.05513 27.7697 9.34807 28.8074Z" stroke="white" stroke-width="1.5"/>
</svg>
