<svg width="50" height="63" viewBox="0 0 50 63" fill="none" xmlns="http://www.w3.org/2000/svg">
<path d="M33.8026 46.3341L34.207 45.7025L34.1967 45.6959L34.1862 45.6896L33.8026 46.3341ZM33.892 46.3873L33.5323 47.0455L33.5421 47.0508L33.5519 47.0558L33.892 46.3873ZM35.1213 46.1685L34.5844 45.6448L34.5775 45.6519L34.5708 45.6591L35.1213 46.1685ZM35.1242 46.1656L35.6611 46.6893L35.6683 46.6818L35.6754 46.6741L35.1242 46.1656ZM35.8283 44.3234L36.5755 44.388L36.5756 44.3871L35.8283 44.3234ZM34.9886 40.926L34.3562 41.3293L34.3577 41.3316L34.9886 40.926ZM33.8372 39.8408L34.1407 39.155L34.1388 39.1541L33.8372 39.8408ZM32.3424 40.0182L31.8346 39.4663L31.8332 39.4676L32.3424 40.0182ZM31.8317 41.3547L31.0842 41.2928L31.084 41.2958L31.8317 41.3547ZM33.0436 45.5949L32.4414 46.0419L32.4421 46.0428L33.0436 45.5949ZM28.6026 45.3317L28.1141 45.9008L28.119 45.9049L28.6026 45.3317ZM29.5809 45.929L29.3489 46.6422L29.3554 46.6443L29.5809 45.929ZM29.6905 45.9586L29.5044 46.6851L29.5054 46.6854L29.6905 45.9586ZM30.9429 45.4263L31.5908 45.804L31.6929 45.629V45.4263H30.9429ZM30.9458 45.4204L31.4823 45.9445L31.5491 45.8761L31.5966 45.7931L30.9458 45.4204ZM31.2574 43.2915L32.001 43.1937L32.0007 43.1912L31.2574 43.2915ZM29.5664 39.897L30.0921 39.362L30.0919 39.3618L29.5664 39.897ZM28.089 39.0306L27.9473 39.7671L27.9503 39.7677L28.089 39.0306ZM26.5452 39.5895L27.1624 40.0156L27.1641 40.013L26.5452 39.5895ZM26.3172 41.1329L25.5741 41.2342L25.5745 41.2372L26.3172 41.1329ZM27.8581 47.4015L28.6079 47.4184L28.6081 47.41V47.4015H27.8581ZM27.8552 47.2862L27.1057 47.3137L27.1062 47.3247L27.8552 47.2862ZM27.5465 46.1596L28.23 45.8509L28.2297 45.8502L27.5465 46.1596ZM24.1818 42.8095L24.4844 42.1232L24.4829 42.1226L24.1818 42.8095ZM22.6698 42.635L22.4058 41.933L22.4057 41.933L22.6698 42.635ZM21.7435 44.0159L22.4909 44.0782L22.4912 44.0746L21.7435 44.0159ZM22.1763 45.7043L22.838 45.3511L22.8375 45.3503L22.1763 45.7043ZM24.9379 48.259L24.6394 48.9471L24.6408 48.9476L24.9379 48.259ZM27.0242 48.5015V47.7515H26.9197L26.8192 47.78L27.0242 48.5015ZM27.03 48.5015L26.4932 49.0253L26.8066 49.3464L27.2378 49.2221L27.03 48.5015ZM35.7792 47.919L36.144 47.2636L36.1418 47.2624L35.7792 47.919ZM30.5187 46.9314L30.4063 46.1898L30.4051 46.19L30.5187 46.9314ZM28.5594 48.4719L27.8687 48.1796L27.8682 48.1806L28.5594 48.4719ZM28.1265 53.9332L27.3958 54.1022L27.3958 54.1022L28.1265 53.9332ZM29.4048 56.3697L29.9029 55.8089L29.9015 55.8077L29.4048 56.3697ZM31.9471 56.7482L31.5596 56.106L31.5592 56.1063L31.9471 56.7482ZM37.4414 52.4311L36.9105 51.9014L36.909 51.9028L37.4414 52.4311ZM37.7444 49.8173L37.0662 50.1377L37.0671 50.1396L37.7444 49.8173ZM26.6433 50.6245L26.0441 51.0757L26.0468 51.0793L26.6433 50.6245ZM22.9612 48.327L22.8222 49.064L22.8239 49.0644L22.9612 48.327ZM21.5703 48.4837L21.1557 47.8588L21.1548 47.8593L21.5703 48.4837ZM21.0163 49.9178L20.2734 50.0214L20.2735 50.0219L21.0163 49.9178ZM21.7406 51.3401L21.1727 51.83L21.1735 51.831L21.7406 51.3401ZM24.7243 53.0462L24.8593 52.3084L24.8561 52.3079L24.7243 53.0462ZM26.6404 52.8303V52.0803H26.4459L26.2759 52.1749L26.6404 52.8303ZM26.6461 52.8274L26.2816 52.172L26.1859 52.2252L26.1095 52.3035L26.6461 52.8274ZM27.1713 51.6683L27.9067 51.5211L27.9047 51.5107L27.9023 51.5004L27.1713 51.6683ZM27.1454 51.5648L26.4207 51.7582L26.4215 51.761L27.1454 51.5648ZM38.1774 61.25H11.8226V62.75H38.1774V61.25ZM11.8226 61.25C9.70851 61.25 7.9675 60.9288 6.75576 59.9796C5.58405 59.0617 4.75 57.4257 4.75 54.406H3.25C3.25 57.6982 4.16983 59.8592 5.83072 61.1604C7.45157 62.4301 9.62187 62.75 11.8226 62.75V61.25ZM4.75 54.406V9.50204H3.25V54.406H4.75ZM4.75 9.50204C4.75 6.50758 5.58478 4.60561 6.80913 3.44535C8.04162 2.27738 9.78554 1.75 11.8226 1.75V0.25C9.54484 0.25 7.37745 0.840237 5.77735 2.35658C4.1691 3.88064 3.25 6.22969 3.25 9.50204H4.75ZM11.8226 1.75H38.1774V0.25H11.8226V1.75ZM38.1774 1.75C40.2914 1.75 42.0335 2.07112 43.2457 3.01595C44.417 3.9289 45.25 5.55358 45.25 8.54892H46.75C46.75 5.27745 45.8291 3.12766 44.1678 1.83286C42.5475 0.569935 40.3782 0.25 38.1774 0.25V1.75ZM45.25 8.54892V54.406H46.75V8.54892H45.25ZM45.25 54.406C45.25 57.4257 44.4159 59.0617 43.2442 59.9796C42.0325 60.9288 40.2915 61.25 38.1774 61.25V62.75C40.3781 62.75 42.5484 62.4301 44.1693 61.1604C45.8302 59.8592 46.75 57.6982 46.75 54.406H45.25ZM10 11H40V9.5H10V11ZM10 15H40V13.5H10V15ZM10 19H40V17.5H10V19ZM10 23H40V21.5H10V23ZM10 27H40V25.5H10V27ZM10 31H40V29.5H10V31ZM10 35H40V33.5H10V35ZM33.3981 46.9657C33.4419 46.9937 33.4866 47.0205 33.5323 47.0455L34.2517 45.7292C34.2397 45.7226 34.2248 45.7139 34.207 45.7025L33.3981 46.9657ZM33.5519 47.0558C34.261 47.4165 35.1245 47.2693 35.6718 46.6779L34.5708 45.6591C34.4833 45.7537 34.3483 45.778 34.2321 45.7189L33.5519 47.0558ZM35.6582 46.6922L35.6611 46.6893L34.5873 45.6418L34.5844 45.6448L35.6582 46.6922ZM35.6754 46.6741C36.2853 46.0131 36.5109 45.1362 36.5755 44.388L35.0811 44.2589C35.0303 44.8472 34.8634 45.3422 34.573 45.657L35.6754 46.6741ZM36.5756 44.3871C36.6905 43.0374 36.3501 41.657 35.6194 40.5204L34.3577 41.3316C34.9082 42.1879 35.168 43.238 35.081 44.2598L36.5756 44.3871ZM35.6209 40.5227C35.295 40.0118 34.8206 39.4559 34.1407 39.155L33.5336 40.5266C33.8291 40.6574 34.1049 40.9353 34.3562 41.3293L35.6209 40.5227ZM34.1388 39.1541C33.4602 38.8561 32.5061 38.8485 31.8346 39.4663L32.8502 40.5702C32.9694 40.4606 33.2446 40.3997 33.5356 40.5275L34.1388 39.1541ZM31.8332 39.4676C31.2564 40.001 31.1269 40.7774 31.0842 41.2928L32.5791 41.4166C32.6172 40.9563 32.7186 40.6919 32.8516 40.5689L31.8332 39.4676ZM31.084 41.2958C30.9516 42.9771 31.4438 44.6977 32.4414 46.0419L33.6459 45.1479C32.866 44.097 32.4752 42.7365 32.5793 41.4136L31.084 41.2958ZM32.4421 46.0428C32.6754 46.3561 32.9886 46.7224 33.4189 46.9785L34.1862 45.6896C34.0105 45.5851 33.839 45.4072 33.6452 45.147L32.4421 46.0428ZM28.119 45.9049C28.4336 46.1704 28.844 46.478 29.3489 46.6422L29.8129 45.2158C29.5906 45.1435 29.3603 44.9897 29.0863 44.7585L28.119 45.9049ZM29.3554 46.6443C29.4185 46.6642 29.4875 46.6808 29.5044 46.6851L29.8766 45.232C29.8662 45.2294 29.8552 45.2266 29.8475 45.2246C29.839 45.2225 29.8323 45.2208 29.8263 45.2192C29.8142 45.216 29.8086 45.2144 29.8064 45.2137L29.3554 46.6443ZM29.5054 46.6854C30.3237 46.8937 31.1686 46.5284 31.5908 45.804L30.2949 45.0486C30.2036 45.2054 30.0327 45.2718 29.8756 45.2318L29.5054 46.6854ZM31.6929 45.4263C31.6929 45.6452 31.597 45.7944 31.5728 45.8315C31.5531 45.8618 31.5344 45.8857 31.5204 45.9024C31.513 45.9112 31.5061 45.919 31.4999 45.9259C31.4967 45.9293 31.4937 45.9326 31.4907 45.9357C31.4893 45.9372 31.4878 45.9387 31.4864 45.9402C31.4857 45.9409 31.485 45.9417 31.4843 45.9424C31.484 45.9427 31.4836 45.9431 31.4833 45.9435C31.4831 45.9436 31.4829 45.9438 31.4828 45.944C31.4827 45.9441 31.4826 45.9442 31.4825 45.9442C31.4824 45.9444 31.4823 45.9445 30.9458 45.4204C30.4093 44.8963 30.4092 44.8964 30.409 44.8966C30.409 44.8966 30.4089 44.8967 30.4088 44.8968C30.4086 44.897 30.4084 44.8972 30.4083 44.8974C30.4079 44.8977 30.4076 44.8981 30.4072 44.8984C30.4065 44.8991 30.4058 44.8999 30.4051 44.9006C30.4037 44.9021 30.4022 44.9036 30.4008 44.9052C30.3978 44.9083 30.3947 44.9117 30.3914 44.9152C30.385 44.9222 30.3779 44.9303 30.3703 44.9394C30.3557 44.9568 30.3363 44.9816 30.3159 45.013C30.2902 45.0523 30.1929 45.2045 30.1929 45.4263H31.6929ZM31.5966 45.7931C32.0726 44.962 32.1067 43.9975 32.001 43.1937L30.5138 43.3892C30.5986 44.0343 30.5403 44.6192 30.295 45.0477L31.5966 45.7931ZM32.0007 43.1912C31.8056 41.7448 31.1242 40.376 30.0921 39.362L29.0408 40.432C29.8325 41.2098 30.363 42.2715 30.5142 43.3917L32.0007 43.1912ZM30.0919 39.3618C29.6302 38.9084 29.0044 38.4397 28.2277 38.2935L27.9503 39.7677C28.3048 39.8344 28.6717 40.0695 29.041 40.4321L30.0919 39.3618ZM28.2307 38.2941C27.4467 38.1432 26.4673 38.3752 25.9262 39.1659L27.1641 40.013C27.2868 39.8338 27.5944 39.6992 27.9473 39.7671L28.2307 38.2941ZM25.928 39.1633C25.4569 39.8456 25.4981 40.6769 25.5741 41.2342L27.0603 41.0317C26.992 40.5304 27.0332 40.2026 27.1624 40.0156L25.928 39.1633ZM25.5745 41.2372C25.8276 43.0394 26.7479 44.7281 28.1142 45.9008L29.0911 44.7626C28.0046 43.83 27.2628 42.4731 27.0599 41.0286L25.5745 41.2372ZM28.6081 47.4015C28.6081 47.3499 28.6069 47.2986 28.6043 47.2477L27.1062 47.3247C27.1075 47.3487 27.1081 47.3743 27.1081 47.4015H28.6081ZM28.6047 47.2587C28.585 46.7198 28.4051 46.2385 28.23 45.8509L26.863 46.4683C27.0111 46.7963 27.0967 47.066 27.1058 47.3137L28.6047 47.2587ZM28.2297 45.8502C27.4824 44.2005 26.1249 42.8465 24.4844 42.1232L23.8793 43.4957C25.1763 44.0676 26.2658 45.1501 26.8633 46.4691L28.2297 45.8502ZM24.4829 42.1226C23.9717 41.8985 23.1857 41.6398 22.4058 41.933L22.9337 43.3371C23.1291 43.2636 23.434 43.3006 23.8808 43.4964L24.4829 42.1226ZM22.4057 41.933C21.5135 42.2686 21.0574 43.1712 20.9958 43.9572L22.4912 44.0746C22.5218 43.6837 22.741 43.4095 22.9338 43.337L22.4057 41.933ZM20.9961 43.9536C20.9297 44.7499 21.2081 45.4847 21.5151 46.0582L22.8375 45.3503C22.5905 44.8889 22.4591 44.4587 22.4909 44.0782L20.9961 43.9536ZM21.5146 46.0574C22.1997 47.341 23.3169 48.3735 24.6394 48.9471L25.2363 47.5709C24.2272 47.1333 23.3649 46.3383 22.838 45.3511L21.5146 46.0574ZM24.6408 48.9476C25.3778 49.2656 26.3086 49.4845 27.2292 49.2229L26.8192 47.78C26.3662 47.9087 25.8138 47.8201 25.235 47.5704L24.6408 48.9476ZM27.0242 49.2515C27.1669 49.2515 27.2843 49.2114 27.3679 49.1685C27.3859 49.1593 27.4005 49.1509 27.4104 49.145C27.4198 49.1394 27.4271 49.1347 27.4276 49.1344C27.4377 49.128 27.4058 49.149 27.369 49.1679C27.3258 49.19 27.2462 49.2257 27.1394 49.2418C27.0257 49.2589 26.9124 49.2492 26.8079 49.2171C26.6258 49.1611 26.5188 49.0515 26.4932 49.0253L27.5667 47.9776C27.5397 47.9499 27.4316 47.8396 27.2486 47.7833C27.1436 47.751 27.03 47.7413 26.9159 47.7585C26.8087 47.7747 26.7287 47.8105 26.6851 47.8328C26.648 47.8519 26.6157 47.8731 26.6255 47.8669C26.6257 47.8668 26.6329 47.8622 26.642 47.8568C26.6518 47.8509 26.6661 47.8427 26.6839 47.8335C26.7666 47.7912 26.8829 47.7515 27.0242 47.7515V49.2515ZM27.2378 49.2221C28.0495 48.988 28.5894 48.2422 28.6079 47.4184L27.1083 47.3846C27.1038 47.5839 26.9743 47.737 26.8221 47.7808L27.2378 49.2221ZM36.1418 47.2624C34.5622 46.3901 32.2002 45.9179 30.4063 46.1898L30.6311 47.6729C32.0749 47.454 34.1049 47.8511 35.4167 48.5755L36.1418 47.2624ZM30.4051 46.19C29.2737 46.3633 28.317 47.1202 27.8687 48.1796L29.25 48.7642C29.5 48.1737 30.0265 47.7655 30.6323 47.6727L30.4051 46.19ZM27.8682 48.1806C27.1539 49.8754 26.9844 52.3229 27.3958 54.1022L28.8572 53.7643C28.5125 52.2733 28.6662 50.1495 29.2505 48.7632L27.8682 48.1806ZM27.3958 54.1022C27.6208 55.0748 28.0444 56.1682 28.9082 56.9317L29.9015 55.8077C29.3802 55.347 29.0536 54.6131 28.8572 53.7642L27.3958 54.1022ZM28.9068 56.9305C29.7683 57.6955 31.1871 58.0838 32.335 57.3901L31.5592 56.1063C31.1315 56.3647 30.4265 56.2739 29.9029 55.8089L28.9068 56.9305ZM32.3346 57.3903C33.0599 56.9526 33.4326 56.2305 33.707 55.7054C34.0129 55.1197 34.229 54.7076 34.592 54.4224L33.6652 53.243C33.0009 53.765 32.6457 54.4973 32.3774 55.0108C32.0775 55.5849 31.8731 55.9169 31.5596 56.106L32.3346 57.3903ZM34.592 54.4224C34.9523 54.1393 35.3909 54.034 36.0217 53.8837C36.5904 53.7481 37.3725 53.5652 37.9737 52.9595L36.909 51.9028C36.6503 52.1635 36.2897 52.2777 35.6738 52.4245C35.1201 52.5565 34.3322 52.7189 33.6652 53.243L34.592 54.4224ZM37.9722 52.9609C38.9134 52.0178 38.9169 50.5357 38.4216 49.4949L37.0671 50.1396C37.374 50.7842 37.2794 51.5316 36.9105 51.9014L37.9722 52.9609ZM38.4225 49.4968C37.9274 48.4492 37.0055 47.7431 36.144 47.2636L35.4145 48.5743C36.1574 48.9878 36.7649 49.4999 37.0662 50.1377L38.4225 49.4968ZM27.2424 50.1733C26.2343 48.8349 24.732 47.8937 23.0984 47.5897L22.8239 49.0644C24.0818 49.2985 25.2573 50.0309 26.0442 51.0757L27.2424 50.1733ZM23.1002 47.59C22.5953 47.4948 21.8167 47.4202 21.1557 47.8588L21.9849 49.1087C22.1261 49.0151 22.3863 48.9818 22.8222 49.064L23.1002 47.59ZM21.1548 47.8593C20.4019 48.3603 20.1714 49.2898 20.2734 50.0214L21.7591 49.8143C21.711 49.4696 21.8499 49.1985 21.9858 49.1082L21.1548 47.8593ZM20.2735 50.0219C20.3772 50.7615 20.7777 51.3721 21.1727 51.83L22.3084 50.8502C21.9994 50.4919 21.8054 50.1446 21.759 49.8137L20.2735 50.0219ZM21.1735 51.831C22.0547 52.8489 23.2781 53.5498 24.5925 53.7845L24.8561 52.3079C23.8851 52.1345 22.9673 51.6113 22.3076 50.8492L21.1735 51.831ZM24.5893 53.7839C25.32 53.9176 26.2163 53.9244 27.0049 53.4858L26.2759 52.1749C25.916 52.375 25.4214 52.4113 24.8593 52.3084L24.5893 53.7839ZM26.6404 53.5803C26.8726 53.5803 27.0299 53.4738 27.0673 53.4482C27.0988 53.4267 27.1234 53.4065 27.1405 53.3914C27.1495 53.3836 27.1574 53.3762 27.1643 53.3696C27.1678 53.3663 27.1711 53.3631 27.1741 53.36C27.1757 53.3585 27.1772 53.357 27.1786 53.3556C27.1793 53.3548 27.18 53.3541 27.1807 53.3534C27.1811 53.3531 27.1814 53.3527 27.1818 53.3523C27.182 53.3522 27.1821 53.352 27.1823 53.3518C27.1824 53.3517 27.1825 53.3516 27.1826 53.3516C27.1827 53.3514 27.1828 53.3513 26.6461 52.8274C26.1095 52.3035 26.1096 52.3034 26.1097 52.3032C26.1098 52.3032 26.1099 52.303 26.11 52.303C26.1101 52.3028 26.1103 52.3026 26.1105 52.3024C26.1108 52.3021 26.1112 52.3017 26.1115 52.3014C26.1122 52.3007 26.1129 52.2999 26.1137 52.2992C26.1151 52.2978 26.1166 52.2963 26.1181 52.2948C26.1211 52.2918 26.1243 52.2887 26.1277 52.2854C26.1344 52.279 26.1421 52.2719 26.1508 52.2643C26.1673 52.2498 26.191 52.2303 26.2214 52.2095C26.2504 52.1897 26.2967 52.161 26.3581 52.1359C26.4179 52.1114 26.5158 52.0803 26.6404 52.0803V53.5803ZM27.0107 53.4828C27.708 53.0949 28.0612 52.2926 27.9067 51.5211L26.4359 51.8155C26.4662 51.9666 26.3922 52.1104 26.2816 52.172L27.0107 53.4828ZM27.9023 51.5004C27.8923 51.4568 27.8812 51.4128 27.8692 51.3686L26.4215 51.761C26.4287 51.7878 26.435 51.8128 26.4404 51.8361L27.9023 51.5004ZM27.87 51.3714C27.7406 50.8868 27.4797 50.4846 27.2397 50.1698L26.0468 51.0793C26.2397 51.3322 26.3654 51.5509 26.4207 51.7582L27.87 51.3714Z" fill="white"/>
</svg>
