<svg width="40" height="40" viewBox="0 0 40 40" fill="none" xmlns="http://www.w3.org/2000/svg">
<g clip-path="url(#clip0_2843_17237)">
<path d="M20.0013 9.83341C21.9346 9.83341 23.5013 11.4001 23.5013 13.3334C23.5013 15.2667 21.9346 16.8334 20.0013 16.8334C18.068 16.8334 16.5013 15.2667 16.5013 13.3334C16.5013 11.4001 18.068 9.83341 20.0013 9.83341ZM20.0013 24.8334C24.9513 24.8334 30.168 27.2667 30.168 28.3334V30.1667H9.83464V28.3334C9.83464 27.2667 15.0513 24.8334 20.0013 24.8334ZM20.0013 6.66675C16.318 6.66675 13.3346 9.65008 13.3346 13.3334C13.3346 17.0167 16.318 20.0001 20.0013 20.0001C23.6846 20.0001 26.668 17.0167 26.668 13.3334C26.668 9.65008 23.6846 6.66675 20.0013 6.66675ZM20.0013 21.6667C15.5513 21.6667 6.66797 23.9001 6.66797 28.3334V33.3334H33.3346V28.3334C33.3346 23.9001 24.4513 21.6667 20.0013 21.6667Z" fill="#251C33"/>
</g>
<defs>
<clipPath id="clip0_2843_17237">
<rect width="40" height="40" fill="white"/>
</clipPath>
</defs>
</svg>
