<svg width="46" height="46" viewBox="0 0 46 46" fill="none" xmlns="http://www.w3.org/2000/svg">
<g id="Logo">
<g id="Logo_2">
<path d="M33.8172 15.6985H34.3969V18.5567H33.8661V18.0749C33.6484 18.2491 33.3926 18.3825 33.0986 18.475C32.8101 18.5621 32.4998 18.6057 32.1678 18.6057C31.6561 18.6057 31.1798 18.4913 30.7389 18.2627C30.3034 18.034 29.9523 17.7019 29.6856 17.2664C29.4188 16.8309 29.2855 16.3137 29.2855 15.7149C29.2855 15.1596 29.4161 14.6614 29.6774 14.2205C29.9387 13.774 30.2979 13.4256 30.7552 13.1752C31.2125 12.9193 31.7296 12.7914 32.3066 12.7914C32.7421 12.7914 33.1422 12.8622 33.5069 13.0037C33.8716 13.1398 34.1791 13.344 34.4295 13.6162L34.054 14C33.6021 13.5536 33.0279 13.3304 32.3311 13.3304C31.8684 13.3304 31.4492 13.4338 31.0736 13.6407C30.7035 13.8421 30.4123 14.1252 30.2 14.4899C29.9877 14.8547 29.8815 15.263 29.8815 15.7149C29.8815 16.1994 29.9877 16.6213 30.2 16.9806C30.4177 17.3345 30.7035 17.6067 31.0573 17.7972C31.4166 17.9823 31.8003 18.0749 32.2086 18.0749C32.508 18.0749 32.7965 18.0259 33.0741 17.9279C33.3572 17.8244 33.6049 17.6693 33.8172 17.4624V15.6985Z" fill="white"/>
<path d="M27.794 18.5567L26.4876 16.7193C26.3406 16.7356 26.1882 16.7438 26.0303 16.7438H24.4953V18.5567H23.891V12.8404H26.0303C26.7598 12.8404 27.3313 13.0146 27.745 13.363C28.1587 13.7114 28.3656 14.1905 28.3656 14.8003C28.3656 15.2467 28.2513 15.625 28.0226 15.9354C27.7995 16.2402 27.4783 16.4607 27.0591 16.5968L28.4554 18.5567H27.794ZM26.014 16.2293C26.5801 16.2293 27.0129 16.1041 27.3123 15.8537C27.6117 15.6033 27.7614 15.2521 27.7614 14.8003C27.7614 14.3375 27.6117 13.9837 27.3123 13.7387C27.0129 13.4882 26.5801 13.363 26.014 13.363H24.4953V16.2293H26.014Z" fill="white"/>
<path d="M19.6877 12.7914C20.428 12.7914 21.0105 13.0092 21.4351 13.4447C21.8651 13.8748 22.0801 14.4981 22.0801 15.3147V18.5567H21.4841V16.8744H17.8914V18.5567H17.3035V15.3147C17.3035 14.4981 17.5158 13.8748 17.9403 13.4447C18.3704 13.0092 18.9528 12.7914 19.6877 12.7914ZM21.4841 16.3518V15.2576C21.4841 14.6206 21.3262 14.1415 21.0105 13.8203C20.6947 13.4937 20.2538 13.3304 19.6877 13.3304C19.1216 13.3304 18.6807 13.4937 18.3649 13.8203C18.0492 14.1415 17.8914 14.6206 17.8914 15.2576V16.3518H21.4841Z" fill="white"/>
<path d="M13.3991 15.87L12.2315 17.0541V18.5567H11.6273V12.8404H12.2315V16.2947L15.5874 12.8404H16.2815L13.8074 15.4291L16.4529 18.5567H15.7344L13.3991 15.87Z" fill="white"/>
<path d="M16.8938 39.2486C16.8938 39.2486 14.378 38.5225 13.5356 37.3834C13.5356 37.3834 11.444 38.6874 14.8195 40.2235C14.8195 40.2235 13.1311 40.6437 11.5472 37.8668C9.96489 35.091 8.46061 34.2382 7.70964 35.0566L8.23499 36.3047C8.23499 36.3047 6.17722 34.4624 5.32554 35.8723C5.32554 35.8723 10.7815 42.7425 13.8017 44.0876C17.3866 45.6827 21.4742 46.2806 25.3663 45.8789C37.9984 44.5732 47.1824 33.2716 45.8763 20.6352C45.439 16.4067 43.884 12.5642 41.5323 9.37244C47.9817 23.5341 42.5741 41.7661 22.9644 41.7919C19.4757 41.7964 20.8511 39.7101 16.8938 39.2486Z" fill="white"/>
<path d="M29.1062 6.75223C29.1062 6.75223 31.6232 7.47659 32.4661 8.61859C32.4661 8.61859 34.5571 7.31173 31.1805 5.77724C31.1805 5.77724 32.8718 5.35657 34.4529 8.13401C36.0368 10.9109 37.5406 11.7609 38.292 10.9454L37.7662 9.6944C37.7662 9.6944 39.8256 11.5379 40.6773 10.128C40.6773 10.128 35.2185 3.25825 32.1983 1.91315C28.6151 0.319223 24.527 -0.281489 20.6365 0.121374C8.00159 1.42761 -1.18237 12.7292 0.123718 25.3656C0.560986 29.5941 2.11887 33.4361 4.46943 36.6295C-1.9817 22.4667 3.4259 4.23465 23.0385 4.20843C26.5243 4.20438 25.1517 6.29021 29.1062 6.75223Z" fill="#FFA33C"/>
<path d="M12.8925 27.9271C12.8925 27.9271 13.3824 27.3143 13.7036 27.2436C14.025 27.173 14.3904 27.3173 14.499 27.574C14.5618 27.801 14.2456 28.2473 13.8596 28.2759C13.6009 28.3328 12.8925 27.9271 12.8925 27.9271Z" fill="#FFA33C"/>
<path d="M15.5312 31.7821C15.5312 31.7821 11.7245 33.6854 9.91625 32.5109C10.1714 32.118 12.8047 31.3147 12.8047 31.3147C12.8047 31.3147 9.79955 30.8525 9.99011 30.4176C10.1807 29.9828 13.1401 29.9498 13.1401 29.9498C13.1401 29.9498 11.5272 29.1816 11.4783 28.1258C11.7119 26.9741 13.2901 26.9774 14.4487 26.2379C15.3195 24.7554 17.9104 24.0175 17.9104 24.0175C17.9104 24.0175 16.4158 25.188 16.3764 25.8142C16.5702 25.94 18.8791 24.6466 18.8791 24.6466C18.1091 26.2189 15.6095 26.7125 16.9075 28.6727C17.9187 29.2364 18.3266 29.3152 19.4385 28.7339C19.4385 28.7339 27.9372 19.1422 33.2966 21.8146C36.8841 23.6034 38.58 30.6457 38.58 30.6457C37.7434 29.2475 31.3547 23.5326 23.5524 28.0543C23.5524 28.0543 26.1433 27.3164 27.0883 27.5578C26.2584 28.6945 24.118 29.4457 24.118 29.4457C24.118 29.4457 26.3294 29.8578 27.8083 29.7012C27.9595 29.8925 26.6193 31.815 22.3273 31.3549C18.9663 32.4305 18.3902 32.6149 15.5312 31.7821Z" fill="#FFA33C"/>
</g>
</g>
</svg>
