<svg viewBox="0 0 28 28" fill="none" xmlns="http://www.w3.org/2000/svg">
<g id="Group">
<path id="Vector" fill-rule="evenodd" clip-rule="evenodd" d="M13.9996 27.636C21.5308 27.636 27.636 21.5308 27.636 13.9996C27.636 6.4685 21.5308 0.363281 13.9996 0.363281C6.4685 0.363281 0.363281 6.4685 0.363281 13.9996C0.363281 21.5308 6.4685 27.636 13.9996 27.636ZM9.19905 11.5233H12.0306V9.09486C12.0306 6.27879 13.7498 4.74601 16.2618 4.74601C17.1097 4.743 17.9571 4.78632 18.8003 4.87577V7.81904H17.068C15.7012 7.81904 15.4366 8.46852 15.4366 9.4217V11.5233H18.7044L18.2786 14.8233H15.4368V23.2533H12.0306V14.8233H9.19905V11.5233Z" fill="#3A3345"/>
</g>
</svg>
