<svg width="28" height="28" viewBox="0 0 28 28" fill="currentColor" xmlns="http://www.w3.org/2000/svg">
<g id="Group">
<path id="Vector" d="M13.9984 16.863C15.5799 16.863 16.862 15.5809 16.862 13.9994C16.862 12.4178 15.5799 11.1357 13.9984 11.1357C12.4169 11.1357 11.1348 12.4178 11.1348 13.9994C11.1348 15.5809 12.4169 16.863 13.9984 16.863Z" fill="currentColor"/>
<path id="Vector_2" d="M13.9996 0.363281C6.4685 0.363281 0.363281 6.4685 0.363281 13.9996C0.363281 21.5308 6.4685 27.636 13.9996 27.636C21.5308 27.636 27.636 21.5308 27.636 13.9996C27.636 6.4685 21.5308 0.363281 13.9996 0.363281ZM22.4246 17.4655C22.3592 18.7619 21.9949 20.0403 21.0501 20.9751C20.0961 21.9187 18.8116 22.2703 17.5027 22.3351H10.4966C9.18754 22.2703 7.90321 21.9189 6.94926 20.9751C6.00443 20.0403 5.64017 18.7619 5.57472 17.4655V10.5338C5.64017 9.23739 6.00448 7.95895 6.94926 7.02415C7.90321 6.08052 9.1877 5.72892 10.4966 5.66417H17.5027C18.8118 5.72892 20.0961 6.08035 21.05 7.02415C21.9949 7.95895 22.3591 9.23739 22.4246 10.5338L22.4246 17.4655Z" fill="currentColor"/>
<path id="Vector_3" d="M17.4144 7.24408C15.7079 7.19728 12.2923 7.19728 10.5858 7.24408C9.69773 7.26847 8.69098 7.48954 8.05825 8.16536C7.40076 8.86785 7.15231 9.71657 7.12711 10.666C7.08282 12.3325 7.12711 17.3343 7.12711 17.3343C7.15596 18.2837 7.40076 19.1325 8.05825 19.835C8.69098 20.5111 9.69773 20.7319 10.5858 20.7563C12.2923 20.8031 15.7079 20.8031 17.4144 20.7563C18.3025 20.7319 19.3092 20.5108 19.942 19.835C20.5995 19.1325 20.8479 18.2838 20.8731 17.3343V10.666C20.8479 9.71657 20.5995 8.86785 19.942 8.16536C19.309 7.48932 18.3023 7.26847 17.4144 7.24408ZM13.9999 18.4388C13.122 18.4388 12.2638 18.1785 11.5339 17.6908C10.804 17.2031 10.2351 16.5098 9.89912 15.6988C9.56317 14.8877 9.47527 13.9953 9.64654 13.1343C9.81781 12.2732 10.2405 11.4824 10.8613 10.8616C11.4821 10.2408 12.2729 9.81811 13.134 9.64684C13.995 9.47558 14.8874 9.56348 15.6985 9.89943C16.5095 10.2354 17.2028 10.8043 17.6905 11.5342C18.1782 12.2641 18.4385 13.1223 18.4385 14.0002C18.4385 15.1774 17.9709 16.3064 17.1385 17.1388C16.3061 17.9712 15.1771 18.4388 13.9999 18.4388ZM18.4574 10.4778C18.2818 10.4777 18.1102 10.4256 17.9643 10.328C17.8183 10.2305 17.7046 10.0918 17.6374 9.9296C17.5702 9.76738 17.5527 9.5889 17.587 9.41671C17.6213 9.24452 17.7058 9.08636 17.83 8.96223C17.9541 8.83811 18.1123 8.75358 18.2845 8.71934C18.4567 8.68511 18.6352 8.7027 18.7974 8.7699C18.9596 8.83709 19.0982 8.95088 19.1957 9.09686C19.2933 9.24284 19.3453 9.41446 19.3453 9.59003C19.3453 9.70663 19.3224 9.82208 19.2777 9.9298C19.2331 10.0375 19.1677 10.1354 19.0853 10.2178C19.0028 10.3003 18.9049 10.3656 18.7972 10.4102C18.6895 10.4548 18.574 10.4778 18.4574 10.4778Z" fill="currentColor"/>
</g>
</svg>
