<svg viewBox="0 0 48 48" fill="none" xmlns="http://www.w3.org/2000/svg">
<g id="Logo">
<g id="Logo_2">
<path d="M35.2875 16.3811H35.8924V19.3635H35.3386V18.8607C35.1114 19.0425 34.8444 19.1817 34.5377 19.2783C34.2366 19.3692 33.9129 19.4146 33.5664 19.4146C33.0324 19.4146 32.5354 19.2953 32.0753 19.0567C31.6209 18.8181 31.2546 18.4716 30.9762 18.0171C30.6979 17.5627 30.5587 17.023 30.5587 16.3981C30.5587 15.8187 30.6951 15.2989 30.9677 14.8387C31.2404 14.3729 31.6152 14.0094 32.0924 13.748C32.5695 13.481 33.1091 13.3475 33.7112 13.3475C34.1656 13.3475 34.5831 13.4214 34.9637 13.5691C35.3443 13.7111 35.6652 13.9241 35.9265 14.2082L35.5346 14.6087C35.0631 14.1429 34.4638 13.9099 33.7368 13.9099C33.254 13.9099 32.8166 14.0179 32.4247 14.2337C32.0384 14.4439 31.7345 14.7393 31.513 15.1199C31.2915 15.5006 31.1807 15.9266 31.1807 16.3981C31.1807 16.9037 31.2915 17.344 31.513 17.7189C31.7402 18.0881 32.0384 18.3722 32.4076 18.571C32.7825 18.7642 33.183 18.8607 33.609 18.8607C33.9214 18.8607 34.2224 18.8096 34.5121 18.7074C34.8075 18.5994 35.0659 18.4375 35.2875 18.2216V16.3811Z" fill="white"/>
<path d="M29.0025 19.3635L27.6392 17.4462C27.4858 17.4633 27.3268 17.4718 27.1621 17.4718H25.5603V19.3635H24.9298V13.3987H27.1621C27.9232 13.3987 28.5196 13.5805 28.9513 13.944C29.383 14.3076 29.5989 14.8075 29.5989 15.4438C29.5989 15.9096 29.4796 16.3044 29.241 16.6282C29.0081 16.9463 28.673 17.1764 28.2356 17.3184L29.6926 19.3635H29.0025ZM27.145 16.935C27.7358 16.935 28.1873 16.8043 28.4998 16.543C28.8122 16.2817 28.9684 15.9153 28.9684 15.4438C28.9684 14.9609 28.8122 14.5916 28.4998 14.336C28.1873 14.0747 27.7358 13.944 27.145 13.944H25.5603V16.935H27.145Z" fill="white"/>
<path d="M20.5437 13.3475C21.3162 13.3475 21.924 13.5748 22.367 14.0292C22.8158 14.478 23.0401 15.1285 23.0401 15.9806V19.3635H22.4181V17.6081H18.6692V19.3635H18.0558V15.9806C18.0558 15.1285 18.2773 14.478 18.7204 14.0292C19.1691 13.5748 19.7769 13.3475 20.5437 13.3475ZM22.4181 17.0628V15.9209C22.4181 15.2563 22.2534 14.7564 21.924 14.4212C21.5945 14.0804 21.1344 13.9099 20.5437 13.9099C19.953 13.9099 19.4929 14.0804 19.1634 14.4212C18.834 14.7564 18.6692 15.2563 18.6692 15.9209V17.0628H22.4181Z" fill="white"/>
<path d="M13.9817 16.56L12.7633 17.7956V19.3635H12.1328V13.3987H12.7633V17.0031L16.2651 13.3987H16.9893L14.4077 16.0999L17.1683 19.3635H16.4185L13.9817 16.56Z" fill="white"/>
<path d="M17.6283 40.955C17.6283 40.955 15.0031 40.1974 14.1241 39.0087C14.1241 39.0087 11.9416 40.3694 15.4638 41.9724C15.4638 41.9724 13.702 42.4108 12.0492 39.5132C10.3981 36.6167 8.82846 35.7269 8.04484 36.5808L8.59304 37.8832C8.59304 37.8832 6.44579 35.9608 5.55708 37.432C5.55708 37.432 11.2502 44.6009 14.4018 46.0045C18.1426 47.669 22.4078 48.2928 26.4692 47.8736C39.6505 46.5112 49.2338 34.7181 47.8709 21.5324C47.4146 17.1201 45.792 13.1104 43.338 9.77994C50.0679 24.5573 44.4251 43.5821 23.9628 43.6089C20.3224 43.6137 21.7577 41.4366 17.6283 40.955Z" fill="white"/>
<path d="M30.3717 7.0458C30.3717 7.0458 32.9981 7.80165 33.8777 8.99331C33.8777 8.99331 36.0596 7.62963 32.5362 6.02843C32.5362 6.02843 34.301 5.58946 35.9508 8.48766C37.6036 11.3853 39.1728 12.2722 39.9569 11.4213L39.4082 10.1159C39.4082 10.1159 41.5572 12.0395 42.4459 10.5683C42.4459 10.5683 36.7498 3.39991 33.5982 1.99633C29.8592 0.333103 25.5934 -0.293727 21.5338 0.126651C8.34949 1.48968 -1.23378 13.2827 0.129097 26.4684C0.585377 30.8808 2.21099 34.8899 4.66375 38.2221C-2.06786 23.4435 3.57486 4.41876 24.0401 4.39141C27.6776 4.38717 26.2453 6.5637 30.3717 7.0458Z" fill="#FFA33C"/>
<path d="M13.4531 29.1413C13.4531 29.1413 13.9642 28.5019 14.2994 28.4281C14.6348 28.3545 15.0161 28.505 15.1294 28.7729C15.1949 29.0097 14.865 29.4754 14.4622 29.5053C14.1922 29.5647 13.4531 29.1413 13.4531 29.1413Z" fill="#FFA33C"/>
<path d="M16.2064 33.1639C16.2064 33.1639 12.2342 35.1499 10.3474 33.9245C10.6136 33.5145 13.3615 32.6762 13.3615 32.6762C13.3615 32.6762 10.2256 32.1939 10.4245 31.7402C10.6233 31.2864 13.7114 31.252 13.7114 31.252C13.7114 31.252 12.0283 30.4504 11.9774 29.3486C12.2211 28.1469 13.8679 28.1503 15.0769 27.3787C15.9856 25.8317 18.6891 25.0617 18.6891 25.0617C18.6891 25.0617 17.1295 26.2832 17.0885 26.9365C17.2906 27.0679 19.6999 25.7182 19.6999 25.7182C18.8965 27.3589 16.2882 27.874 17.6426 29.9194C18.6977 30.5076 19.1234 30.5897 20.2837 29.9832C20.2837 29.9832 29.1519 19.9745 34.7443 22.7631C38.4877 24.6297 40.2574 31.9782 40.2574 31.9782C39.3845 30.5191 32.718 24.5557 24.5765 29.274C24.5765 29.274 27.28 28.5041 28.2661 28.756C27.4001 29.9421 25.1666 30.7259 25.1666 30.7259C25.1666 30.7259 27.4741 31.156 29.0174 30.9925C29.1751 31.1922 27.7767 33.1983 23.2981 32.7182C19.791 33.8405 19.1897 34.0329 16.2064 33.1639Z" fill="#FFA33C"/>
</g>
</g>
</svg>
