<svg width="902" height="282" fill="none" xmlns="http://www.w3.org/2000/svg"><path fill-rule="evenodd" clip-rule="evenodd" d="M441 108h-46a2 2 0 0 0-2 2v16a2 2 0 0 0 2 2h46v46a2 2 0 0 0 2 2h16a2 2 0 0 0 2-2v-46h46a2 2 0 0 0 2-2v-16a2 2 0 0 0-2-2h-46V62a2 2 0 0 0-2-2h-16a2 2 0 0 0-2 2v46Zm22 22h44a4 4 0 0 0 4-4v-16a4 4 0 0 0-4-4h-44V62a4 4 0 0 0-4-4h-16a4 4 0 0 0-4 4v44h-44a4 4 0 0 0-4 4v16a4 4 0 0 0 4 4h44v44a4 4 0 0 0 4 4h16a4 4 0 0 0 4-4v-44Z" fill="#4D396F"/><path d="M390.255 221.4v-3.81c.56 0 1.01-.14 1.35-.42.34-.287.6-.667.78-1.14.18-.473.317-1.003.41-1.59.094-.593.174-1.193.24-1.8a62.05 62.05 0 0 0 .22-2.57c.06-.827.11-1.683.15-2.57.047-.887.1-1.857.16-2.91l8.88.01v12.99h1.03v3.81h-1.46V219h-10.29v2.4h-1.47Zm2.81-3.81h7.91v-11.58l-6.04-.01c-.04.813-.08 1.6-.12 2.36-.04.76-.086 1.527-.14 2.3-.053.773-.123 1.58-.21 2.42-.073.767-.16 1.437-.26 2.01-.1.573-.24 1.063-.42 1.47-.173.407-.413.75-.72 1.03Zm17.116 1.71c-1.073 0-1.99-.243-2.75-.73s-1.343-1.16-1.75-2.02c-.406-.86-.61-1.847-.61-2.96 0-1.133.207-2.127.62-2.98.414-.853 1-1.517 1.76-1.99.767-.48 1.677-.72 2.73-.72 1.08 0 2 .243 2.76.73.767.48 1.35 1.15 1.75 2.01.407.853.61 1.837.61 2.95 0 1.133-.203 2.13-.61 2.99a4.669 4.669 0 0 1-1.76 2c-.766.48-1.683.72-2.75.72Zm0-1.41c1.2 0 2.094-.397 2.68-1.19.587-.8.88-1.837.88-3.11 0-1.307-.296-2.347-.89-3.12-.586-.773-1.476-1.16-2.67-1.16-.806 0-1.473.183-2 .55-.52.36-.91.863-1.17 1.51-.253.64-.38 1.38-.38 2.22 0 1.3.3 2.343.9 3.13.6.78 1.484 1.17 2.65 1.17Zm6.526 3.51v-3.66c.614 0 1.054-.197 1.32-.59.267-.4.484-1.037.65-1.91.114-.567.207-1.177.28-1.83.074-.653.137-1.4.19-2.24.054-.847.104-1.837.15-2.97h7.14v9.54h1.04v3.66h-1.42V219h-7.94v2.4h-1.41Zm2.49-3.66h5.78v-8.28h-4.32c-.02.507-.05 1.043-.09 1.61a46.28 46.28 0 0 1-.13 1.7 30.84 30.84 0 0 1-.17 1.6c-.06.493-.133.927-.22 1.3-.1.48-.21.89-.33 1.23-.113.34-.286.62-.52.84Zm13.373 1.56c-.813 0-1.497-.147-2.05-.44-.547-.293-.957-.683-1.23-1.17a3.198 3.198 0 0 1-.41-1.59c0-.587.117-1.087.35-1.5.24-.42.563-.763.97-1.03a4.86 4.86 0 0 1 1.43-.61c.547-.133 1.15-.25 1.81-.35a44.517 44.517 0 0 1 1.95-.27c.64-.08 1.2-.157 1.68-.23l-.52.32c.02-1.067-.187-1.857-.62-2.37-.433-.513-1.187-.77-2.26-.77-.74 0-1.367.167-1.88.5-.507.333-.863.86-1.07 1.58l-1.43-.42c.247-.967.743-1.717 1.49-2.25.747-.533 1.717-.8 2.91-.8.987 0 1.823.187 2.51.56.693.367 1.183.9 1.47 1.6.133.313.22.663.26 1.05.04.387.06.78.06 1.18V219h-1.31v-2.71l.38.16c-.367.927-.937 1.633-1.71 2.12-.773.487-1.7.73-2.78.73Zm.17-1.27c.687 0 1.287-.123 1.8-.37a3.255 3.255 0 0 0 1.24-1.01c.313-.433.517-.92.61-1.46.08-.347.123-.727.13-1.14.007-.42.01-.733.01-.94l.56.29c-.5.067-1.043.133-1.63.2-.58.067-1.153.143-1.72.23-.56.087-1.067.19-1.52.31-.307.087-.603.21-.89.37a2.05 2.05 0 0 0-.71.62c-.18.26-.27.583-.27.97 0 .313.077.617.23.91.16.293.413.537.76.73.353.193.82.29 1.4.29Zm10.783.97v-9.44h-3.83v-1.36h9.13v1.36h-3.83V219h-1.47Zm15.787-10.8V219h-1.43v-8.41l-5.92 8.41h-1.24v-10.8h1.43v8.34l5.93-8.34h1.23Zm11.931 15.3v-4.29c-1.054.167-2.014.053-2.88-.34-.867-.4-1.557-1.047-2.07-1.94-.514-.893-.77-2-.77-3.32 0-1.32.256-2.427.77-3.32.513-.9 1.203-1.55 2.07-1.95.866-.4 1.826-.517 2.88-.35v-3.31h1.36v3.31c1.053-.167 2.013-.05 2.88.35.866.4 1.556 1.05 2.07 1.95.513.893.77 2 .77 3.32 0 1.32-.257 2.427-.77 3.32-.514.893-1.204 1.54-2.07 1.94-.867.393-1.827.507-2.88.34v4.29h-1.36Zm0-5.66v-8.47a3.712 3.712 0 0 0-1.56.05c-.5.12-.95.357-1.35.71-.4.347-.717.81-.95 1.39-.227.573-.34 1.27-.34 2.09 0 .82.116 1.52.35 2.1.233.573.55 1.033.95 1.38.4.347.85.58 1.35.7.5.12 1.016.137 1.55.05Zm1.36 0c.533.087 1.05.07 1.55-.05.5-.12.95-.35 1.35-.69.4-.347.716-.807.95-1.38.233-.58.35-1.283.35-2.11s-.117-1.527-.35-2.1c-.227-.58-.54-1.043-.94-1.39a3.16 3.16 0 0 0-1.35-.7 3.712 3.712 0 0 0-1.56-.05v8.47Zm12.424 1.46c-1.073 0-1.99-.243-2.75-.73s-1.343-1.16-1.75-2.02c-.406-.86-.61-1.847-.61-2.96 0-1.133.207-2.127.62-2.98.414-.853 1-1.517 1.76-1.99.767-.48 1.677-.72 2.73-.72 1.08 0 2 .243 2.76.73.767.48 1.35 1.15 1.75 2.01.407.853.61 1.837.61 2.95 0 1.133-.203 2.13-.61 2.99a4.669 4.669 0 0 1-1.76 2c-.766.48-1.683.72-2.75.72Zm0-1.41c1.2 0 2.094-.397 2.68-1.19.587-.8.88-1.837.88-3.11 0-1.307-.296-2.347-.89-3.12-.586-.773-1.476-1.16-2.67-1.16-.806 0-1.473.183-2 .55-.52.36-.91.863-1.17 1.51-.253.64-.38 1.38-.38 2.22 0 1.3.3 2.343.9 3.13.6.78 1.484 1.17 2.65 1.17Zm10.002 1.11v-9.44h-3.83v-1.36h9.13v1.36h-3.83V219h-1.47Zm11.522.3c-1.074 0-1.99-.243-2.75-.73s-1.344-1.16-1.75-2.02c-.407-.86-.61-1.847-.61-2.96 0-1.133.206-2.127.62-2.98.413-.853 1-1.517 1.76-1.99.766-.48 1.676-.72 2.73-.72 1.08 0 2 .243 2.76.73.766.48 1.35 1.15 1.75 2.01.406.853.61 1.837.61 2.95 0 1.133-.204 2.13-.61 2.99a4.682 4.682 0 0 1-1.76 2c-.767.48-1.684.72-2.75.72Zm0-1.41c1.2 0 2.093-.397 2.68-1.19.586-.8.88-1.837.88-3.11 0-1.307-.297-2.347-.89-3.12-.587-.773-1.477-1.16-2.67-1.16-.807 0-1.474.183-2 .55-.52.36-.91.863-1.17 1.51-.254.64-.38 1.38-.38 2.22 0 1.3.3 2.343.9 3.13.6.78 1.483 1.17 2.65 1.17Z" fill="#4D396F"/></svg>