<svg width="60" height="60" viewBox="0 0 60 60" fill="none" xmlns="http://www.w3.org/2000/svg">
<path fill-rule="evenodd" clip-rule="evenodd" d="M25 25H2C1.44772 25 1 25.4477 1 26V34C1 34.5523 1.44772 35 2 35H25V58C25 58.5523 25.4477 59 26 59H34C34.5523 59 35 58.5523 35 58V35H58C58.5523 35 59 34.5523 59 34V26C59 25.4477 58.5523 25 58 25H35V2C35 1.44772 34.5523 1 34 1H26C25.4477 1 25 1.44772 25 2V25ZM36 36H58C59.1046 36 60 35.1046 60 34V26C60 24.8954 59.1046 24 58 24H36V2C36 0.895431 35.1046 0 34 0H26C24.8954 0 24 0.89543 24 2V24H2C0.895431 24 0 24.8954 0 26V34C0 35.1046 0.89543 36 2 36H24V58C24 59.1046 24.8954 60 26 60H34C35.1046 60 36 59.1046 36 58V36Z" fill="#4D396F"/>
</svg>
