<svg width="218" height="300" viewBox="0 0 218 300" fill="none" xmlns="http://www.w3.org/2000/svg">
<path fill-rule="evenodd" clip-rule="evenodd" d="M99 117H53C51.8954 117 51 117.895 51 119V135C51 136.105 51.8954 137 53 137H99V183C99 184.105 99.8954 185 101 185H117C118.105 185 119 184.105 119 183V137H165C166.105 137 167 136.105 167 135V119C167 117.895 166.105 117 165 117H119V71C119 69.8954 118.105 69 117 69H101C99.8954 69 99 69.8954 99 71V117ZM121 139H165C167.209 139 169 137.209 169 135V119C169 116.791 167.209 115 165 115H121V71C121 68.7909 119.209 67 117 67H101C98.7909 67 97 68.7909 97 71V115H53C50.7909 115 49 116.791 49 119V135C49 137.209 50.7909 139 53 139H97V183C97 185.209 98.7909 187 101 187H117C119.209 187 121 185.209 121 183V139Z" fill="#4D396F"/>
<path d="M48.2554 230.4V226.59C48.8154 226.59 49.2654 226.45 49.6054 226.17C49.9454 225.883 50.2054 225.503 50.3854 225.03C50.5654 224.557 50.7021 224.027 50.7954 223.44C50.8887 222.847 50.9687 222.247 51.0354 221.64C51.1287 220.753 51.2021 219.897 51.2554 219.07C51.3154 218.243 51.3654 217.387 51.4054 216.5C51.4521 215.613 51.5054 214.643 51.5654 213.59L60.4454 213.6V226.59H61.4754V230.4H60.0154V228H49.7254V230.4H48.2554ZM51.0654 226.59H58.9754V215.01L52.9354 215C52.8954 215.813 52.8554 216.6 52.8154 217.36C52.7754 218.12 52.7287 218.887 52.6754 219.66C52.6221 220.433 52.5521 221.24 52.4654 222.08C52.3921 222.847 52.3054 223.517 52.2054 224.09C52.1054 224.663 51.9654 225.153 51.7854 225.56C51.6121 225.967 51.3721 226.31 51.0654 226.59ZM68.1815 228.3C67.1082 228.3 66.1915 228.057 65.4315 227.57C64.6715 227.083 64.0882 226.41 63.6815 225.55C63.2748 224.69 63.0715 223.703 63.0715 222.59C63.0715 221.457 63.2782 220.463 63.6915 219.61C64.1048 218.757 64.6915 218.093 65.4515 217.62C66.2182 217.14 67.1282 216.9 68.1815 216.9C69.2615 216.9 70.1815 217.143 70.9415 217.63C71.7082 218.11 72.2915 218.78 72.6915 219.64C73.0982 220.493 73.3015 221.477 73.3015 222.59C73.3015 223.723 73.0982 224.72 72.6915 225.58C72.2848 226.433 71.6982 227.1 70.9315 227.58C70.1648 228.06 69.2482 228.3 68.1815 228.3ZM68.1815 226.89C69.3815 226.89 70.2748 226.493 70.8615 225.7C71.4482 224.9 71.7415 223.863 71.7415 222.59C71.7415 221.283 71.4448 220.243 70.8515 219.47C70.2648 218.697 69.3748 218.31 68.1815 218.31C67.3748 218.31 66.7082 218.493 66.1815 218.86C65.6615 219.22 65.2715 219.723 65.0115 220.37C64.7582 221.01 64.6315 221.75 64.6315 222.59C64.6315 223.89 64.9315 224.933 65.5315 225.72C66.1315 226.5 67.0148 226.89 68.1815 226.89ZM74.7074 230.4V226.74C75.3208 226.74 75.7608 226.543 76.0274 226.15C76.2941 225.75 76.5108 225.113 76.6774 224.24C76.7908 223.673 76.8841 223.063 76.9574 222.41C77.0308 221.757 77.0941 221.01 77.1474 220.17C77.2008 219.323 77.2508 218.333 77.2974 217.2H84.4374V226.74H85.4774V230.4H84.0574V228H76.1174V230.4H74.7074ZM77.1974 226.74H82.9774V218.46H78.6574C78.6374 218.967 78.6074 219.503 78.5674 220.07C78.5341 220.637 78.4908 221.203 78.4374 221.77C78.3908 222.337 78.3341 222.87 78.2674 223.37C78.2074 223.863 78.1341 224.297 78.0474 224.67C77.9474 225.15 77.8374 225.56 77.7174 225.9C77.6041 226.24 77.4308 226.52 77.1974 226.74ZM90.5701 228.3C89.7567 228.3 89.0734 228.153 88.5201 227.86C87.9734 227.567 87.5634 227.177 87.2901 226.69C87.0167 226.203 86.8801 225.673 86.8801 225.1C86.8801 224.513 86.9967 224.013 87.2301 223.6C87.4701 223.18 87.7934 222.837 88.2001 222.57C88.6134 222.303 89.0901 222.1 89.6301 221.96C90.1767 221.827 90.7801 221.71 91.4401 221.61C92.1067 221.503 92.7567 221.413 93.3901 221.34C94.0301 221.26 94.5901 221.183 95.0701 221.11L94.5501 221.43C94.5701 220.363 94.3634 219.573 93.9301 219.06C93.4967 218.547 92.7434 218.29 91.6701 218.29C90.9301 218.29 90.3034 218.457 89.7901 218.79C89.2834 219.123 88.9267 219.65 88.7201 220.37L87.2901 219.95C87.5367 218.983 88.0334 218.233 88.7801 217.7C89.5267 217.167 90.4967 216.9 91.6901 216.9C92.6767 216.9 93.5134 217.087 94.2001 217.46C94.8934 217.827 95.3834 218.36 95.6701 219.06C95.8034 219.373 95.8901 219.723 95.9301 220.11C95.9701 220.497 95.9901 220.89 95.9901 221.29V228H94.6801V225.29L95.0601 225.45C94.6934 226.377 94.1234 227.083 93.3501 227.57C92.5767 228.057 91.6501 228.3 90.5701 228.3ZM90.7401 227.03C91.4267 227.03 92.0267 226.907 92.5401 226.66C93.0534 226.413 93.4667 226.077 93.7801 225.65C94.0934 225.217 94.2967 224.73 94.3901 224.19C94.4701 223.843 94.5134 223.463 94.5201 223.05C94.5267 222.63 94.5301 222.317 94.5301 222.11L95.0901 222.4C94.5901 222.467 94.0467 222.533 93.4601 222.6C92.8801 222.667 92.3067 222.743 91.7401 222.83C91.1801 222.917 90.6734 223.02 90.2201 223.14C89.9134 223.227 89.6167 223.35 89.3301 223.51C89.0434 223.663 88.8067 223.87 88.6201 224.13C88.4401 224.39 88.3501 224.713 88.3501 225.1C88.3501 225.413 88.4267 225.717 88.5801 226.01C88.7401 226.303 88.9934 226.547 89.3401 226.74C89.6934 226.933 90.1601 227.03 90.7401 227.03ZM101.523 228V218.56H97.6934V217.2H106.823V218.56H102.993V228H101.523ZM117.31 217.2V228H115.88V219.59L109.96 228H108.72V217.2H110.15V225.54L116.08 217.2H117.31ZM129.241 232.5V228.21C128.187 228.377 127.227 228.263 126.361 227.87C125.494 227.47 124.804 226.823 124.291 225.93C123.777 225.037 123.521 223.93 123.521 222.61C123.521 221.29 123.777 220.183 124.291 219.29C124.804 218.39 125.494 217.74 126.361 217.34C127.227 216.94 128.187 216.823 129.241 216.99V213.68H130.601V216.99C131.654 216.823 132.614 216.94 133.481 217.34C134.347 217.74 135.037 218.39 135.551 219.29C136.064 220.183 136.321 221.29 136.321 222.61C136.321 223.93 136.064 225.037 135.551 225.93C135.037 226.823 134.347 227.47 133.481 227.87C132.614 228.263 131.654 228.377 130.601 228.21V232.5H129.241ZM129.241 226.84V218.37C128.701 218.277 128.181 218.293 127.681 218.42C127.181 218.54 126.731 218.777 126.331 219.13C125.931 219.477 125.614 219.94 125.381 220.52C125.154 221.093 125.041 221.79 125.041 222.61C125.041 223.43 125.157 224.13 125.391 224.71C125.624 225.283 125.941 225.743 126.341 226.09C126.741 226.437 127.191 226.67 127.691 226.79C128.191 226.91 128.707 226.927 129.241 226.84ZM130.601 226.84C131.134 226.927 131.651 226.91 132.151 226.79C132.651 226.67 133.101 226.44 133.501 226.1C133.901 225.753 134.217 225.293 134.451 224.72C134.684 224.14 134.801 223.437 134.801 222.61C134.801 221.783 134.684 221.083 134.451 220.51C134.224 219.93 133.911 219.467 133.511 219.12C133.111 218.773 132.661 218.54 132.161 218.42C131.661 218.293 131.141 218.277 130.601 218.37V226.84ZM143.025 228.3C141.952 228.3 141.035 228.057 140.275 227.57C139.515 227.083 138.932 226.41 138.525 225.55C138.119 224.69 137.915 223.703 137.915 222.59C137.915 221.457 138.122 220.463 138.535 219.61C138.949 218.757 139.535 218.093 140.295 217.62C141.062 217.14 141.972 216.9 143.025 216.9C144.105 216.9 145.025 217.143 145.785 217.63C146.552 218.11 147.135 218.78 147.535 219.64C147.942 220.493 148.145 221.477 148.145 222.59C148.145 223.723 147.942 224.72 147.535 225.58C147.129 226.433 146.542 227.1 145.775 227.58C145.009 228.06 144.092 228.3 143.025 228.3ZM143.025 226.89C144.225 226.89 145.119 226.493 145.705 225.7C146.292 224.9 146.585 223.863 146.585 222.59C146.585 221.283 146.289 220.243 145.695 219.47C145.109 218.697 144.219 218.31 143.025 218.31C142.219 218.31 141.552 218.493 141.025 218.86C140.505 219.22 140.115 219.723 139.855 220.37C139.602 221.01 139.475 221.75 139.475 222.59C139.475 223.89 139.775 224.933 140.375 225.72C140.975 226.5 141.859 226.89 143.025 226.89ZM153.027 228V218.56H149.197V217.2H158.327V218.56H154.497V228H153.027ZM164.549 228.3C163.475 228.3 162.559 228.057 161.799 227.57C161.039 227.083 160.455 226.41 160.049 225.55C159.642 224.69 159.439 223.703 159.439 222.59C159.439 221.457 159.645 220.463 160.059 219.61C160.472 218.757 161.059 218.093 161.819 217.62C162.585 217.14 163.495 216.9 164.549 216.9C165.629 216.9 166.549 217.143 167.309 217.63C168.075 218.11 168.659 218.78 169.059 219.64C169.465 220.493 169.669 221.477 169.669 222.59C169.669 223.723 169.465 224.72 169.059 225.58C168.652 226.433 168.065 227.1 167.299 227.58C166.532 228.06 165.615 228.3 164.549 228.3ZM164.549 226.89C165.749 226.89 166.642 226.493 167.229 225.7C167.815 224.9 168.109 223.863 168.109 222.59C168.109 221.283 167.812 220.243 167.219 219.47C166.632 218.697 165.742 218.31 164.549 218.31C163.742 218.31 163.075 218.493 162.549 218.86C162.029 219.22 161.639 219.723 161.379 220.37C161.125 221.01 160.999 221.75 160.999 222.59C160.999 223.89 161.299 224.933 161.899 225.72C162.499 226.5 163.382 226.89 164.549 226.89Z" fill="#4D396F"/>
</svg>
