<svg aria-hidden="true" style="position: absolute; width: 0; height: 0; overflow: hidden;" version="1.1" xmlns="http://www.w3.org/2000/svg" xmlns:xlink="http://www.w3.org/1999/xlink">
    <defs>
        <symbol id="icon-arrow-right" viewBox="0 0 32 32">
            <path d="M11.029 8.363c0.483-0.484 1.267-0.484 1.751 0l7.429 7.429c0.483 0.483 0.483 1.267 0 1.751l-7.429 7.429c-0.483 0.484-1.267 0.484-1.751 0s-0.483-1.267 0-1.751l6.553-6.553-6.553-6.553c-0.483-0.483-0.483-1.267 0-1.751z"></path>
        </symbol>
        <symbol id="icon-check-mark" viewBox="0 0 52 32">
            <path fill="#fff" style="fill: var(--color1, #fff)" d="M1.088 1.088c1.451-1.451 3.802-1.451 5.253 0l19.659 19.659 19.659-19.659c1.451-1.451 3.802-1.451 5.253 0s1.451 3.802 0 5.253l-22.286 22.286c-1.451 1.451-3.802 1.451-5.253 0l-22.286-22.286c-1.451-1.451-1.451-3.802 0-5.253z"></path>
       </symbol>
    </defs>
</svg>
