<svg width="22" height="22" viewBox="0 0 22 22" fill="none" xmlns="http://www.w3.org/2000/svg">
<path d="M21.4881 17.072C21.438 16.7624 21.2439 16.4978 20.9532 16.3406L16.6527 13.8068L16.6173 13.787C16.437 13.6968 16.2378 13.6505 16.0362 13.652C15.6759 13.652 15.3318 13.7885 15.093 14.0279L13.8237 15.2978C13.7694 15.3494 13.5924 15.4241 13.5387 15.4268C13.524 15.4256 12.0618 15.3203 9.36988 12.6281C6.68278 9.94161 6.56878 8.47491 6.56788 8.47491C6.56938 8.39991 6.64318 8.22351 6.69568 8.16891L7.77808 7.08681C8.15938 6.70461 8.27368 6.07101 8.04748 5.58021L5.65708 1.08231C5.48338 0.724706 5.14588 0.503906 4.77148 0.503906C4.50658 0.503906 4.25098 0.613706 4.05118 0.813206L1.10068 3.75711C0.817781 4.03851 0.57418 4.53051 0.52108 4.92651C0.49528 5.11581 -0.0282196 9.63441 6.16678 15.8303C11.4261 21.089 15.5271 21.4976 16.6596 21.4976C16.7975 21.4994 16.9354 21.4923 17.0724 21.4763C17.4672 21.4235 17.9586 21.1805 18.2397 20.8988L21.1878 17.951C21.4284 17.7092 21.5382 17.3897 21.4881 17.072Z" fill="white"/>
</svg>
