<svg width="27" height="33" viewBox="0 0 27 33" fill="none" xmlns="http://www.w3.org/2000/svg">
<g clip-path="url(#clip0_3903_9054)">
<path d="M9.42578 25.5134C9.93471 25.5134 10.2695 25.192 10.2561 24.7232L9.84096 10.3929C9.82757 9.9241 9.49274 9.61607 9.0106 9.61607C8.50168 9.61607 8.16686 9.9375 8.18025 10.4063L8.58203 24.7232C8.59543 25.2054 8.93025 25.5134 9.42578 25.5134ZM13.3901 25.5134C13.899 25.5134 14.2606 25.192 14.2606 24.7232V10.4063C14.2606 9.9375 13.899 9.61607 13.3901 9.61607C12.8811 9.61607 12.533 9.9375 12.533 10.4063V24.7232C12.533 25.192 12.8811 25.5134 13.3901 25.5134ZM17.3677 25.5134C17.8499 25.5134 18.1848 25.2054 18.1981 24.7232L18.5998 10.4063C18.6133 9.9375 18.2785 9.61607 17.7696 9.61607C17.2874 9.61607 16.9525 9.9241 16.9392 10.4063L16.5374 24.7232C16.524 25.192 16.8588 25.5134 17.3677 25.5134ZM7.5106 6.12054H9.64007V3.25447C9.64007 2.49107 10.1758 1.99553 10.9794 1.99553H15.774C16.5776 1.99553 17.1133 2.49107 17.1133 3.25447V6.12054H19.2427V3.12054C19.2427 1.17857 17.9838 0 15.9213 0H10.832C8.76953 0 7.5106 1.17857 7.5106 3.12054V6.12054ZM1.43025 7.19197H25.3633C25.9124 7.19197 26.3544 6.72321 26.3544 6.1741C26.3544 5.62501 25.9124 5.16965 25.3633 5.16965H1.43025C0.894531 5.16965 0.425781 5.62501 0.425781 6.1741C0.425781 6.73661 0.894531 7.19197 1.43025 7.19197ZM7.25614 29.8259H19.5374C21.4525 29.8259 22.7382 28.5803 22.8321 26.6651L23.7696 6.9375H21.6133L20.716 26.4375C20.6892 27.241 20.1133 27.8035 19.3232 27.8035H7.44363C6.68025 27.8035 6.10435 27.2277 6.06417 26.4375L5.11328 6.9375H3.0106L3.9615 26.6786C4.05524 28.5937 5.31417 29.8259 7.25614 29.8259Z" fill="black" fill-opacity="0.85"/>
</g>
<defs>
<clipPath id="clip0_3903_9054">
<rect width="25.9286" height="32.2098" fill="white" transform="translate(0.429688)"/>
</clipPath>
</defs>
</svg>
