<svg width="16" height="20" viewBox="0 0 16 20" fill="none" xmlns="http://www.w3.org/2000/svg">
<path d="M5.55372 17.1082C5.86777 17.1082 6.07438 16.8927 6.06611 16.5783L5.80992 6.969C5.80165 6.65468 5.59504 6.44812 5.29752 6.44812C4.98347 6.44812 4.77686 6.66366 4.78513 6.97799L5.03306 16.5783C5.04132 16.9016 5.24794 17.1082 5.55372 17.1082ZM8.00004 17.1082C8.31408 17.1082 8.53721 16.8927 8.53721 16.5783V6.97799C8.53721 6.66366 8.31408 6.44812 8.00004 6.44812C7.68592 6.44812 7.47111 6.66366 7.47111 6.97799V16.5783C7.47111 16.8927 7.68592 17.1082 8.00004 17.1082ZM10.4545 17.1082C10.7521 17.1082 10.9587 16.9016 10.967 16.5783L11.2148 6.97799C11.2232 6.66366 11.0165 6.44812 10.7025 6.44812C10.405 6.44812 10.1983 6.65468 10.1901 6.97799L9.94218 16.5783C9.93386 16.8927 10.1405 17.1082 10.4545 17.1082ZM4.3719 4.10417H5.68595V2.18231C5.68595 1.67041 6.01653 1.33812 6.5124 1.33812H9.47108C9.96693 1.33812 10.2975 1.67041 10.2975 2.18231V4.10417H11.6115V2.0925C11.6115 0.7903 10.8347 0 9.56199 0H6.42149C5.14876 0 4.3719 0.7903 4.3719 2.0925V4.10417ZM0.619835 4.82262H15.3884C15.7273 4.82262 16 4.5083 16 4.14009C16 3.77189 15.7273 3.46654 15.3884 3.46654H0.619835C0.289256 3.46654 0 3.77189 0 4.14009C0 4.51728 0.289256 4.82262 0.619835 4.82262ZM4.21487 20H11.7934C12.9752 20 13.7686 19.1648 13.8265 17.8805L14.405 4.65199H13.0744L12.5207 17.7278C12.5042 18.2667 12.1488 18.6439 11.6612 18.6439H4.33057C3.85951 18.6439 3.50413 18.2577 3.47934 17.7278L2.89256 4.65199H1.59504L2.18182 17.8895C2.23967 19.1737 3.01653 20 4.21487 20Z" fill="#FF8C0C"/>
</svg>
